<mxfile host="app.diagrams.net" modified="2023-09-25T11:15:32.364Z" agent="Mozilla/5.0 (Windows NT 10.0; Win64; x64) AppleWebKit/537.36 (KHTML, like Gecko) Chrome/114.0.0.0 YaBrowser/23.7.5.734 Yowser/2.5 Safari/537.36" etag="yRtsd-q52scqelsLYLfu" version="21.7.5" type="device">
  <diagram name="Страница — 1" id="ByMpE-sErJk-GEV99PEO">
    <mxGraphModel dx="1434" dy="911" grid="1" gridSize="10" guides="1" tooltips="1" connect="1" arrows="1" fold="1" page="1" pageScale="1" pageWidth="827" pageHeight="1169" math="0" shadow="0">
      <root>
        <mxCell id="0" />
        <mxCell id="1" parent="0" />
        <mxCell id="hFHBtLZw5_vsM6Dtxbmf-1" value="" style="shape=image;verticalLabelPosition=bottom;labelBackgroundColor=default;verticalAlign=top;imageAspect=0;image=data:image/jpeg,/9j/4AAQSkZJRgABAQEAYABgAAD/2wBDAAMCAgMCAgMDAwMEAwMEBQgFBQQEBQoHBwYIDAoMDAsKCwsNDhIQDQ4RDgsLEBYQERMUFRUVDA8XGBYUGBIUFRT/2wBDAQMEBAUEBQkFBQkUDQsNFBQUFBQUFBQUFBQUFBQUFBQUFBQUFBQUFBQUFBQUFBQUFBQUFBQUFBQUFBQUFBQUFBT/wAARCAIjAzQDASIAAhEBAxEB/8QAHwAAAQUBAQEBAQEAAAAAAAAAAAECAwQFBgcICQoL/8QAtRAAAgEDAwIEAwUFBAQAAAF9AQIDAAQRBRIhMUEGE1FhByJxFDKBkaEII0KxwRVS0fAkM2JyggkKFhcYGRolJicoKSo0NTY3ODk6Q0RFRkdISUpTVFVWV1hZWmNkZWZnaGlqc3R1dnd4eXqDhIWGh4iJipKTlJWWl5iZmqKjpKWmp6ipqrKztLW2t7i5usLDxMXGx8jJytLT1NXW19jZ2uHi4+Tl5ufo6erx8vP09fb3+Pn6/8QAHwEAAwEBAQEBAQEBAQAAAAAAAAECAwQFBgcICQoL/8QAtREAAgECBAQDBAcFBAQAAQJ3AAECAxEEBSExBhJBUQdhcRMiMoEIFEKRobHBCSMzUvAVYnLRChYkNOEl8RcYGRomJygpKjU2Nzg5OkNERUZHSElKU1RVVldYWVpjZGVmZ2hpanN0dXZ3eHl6goOEhYaHiImKkpOUlZaXmJmaoqOkpaanqKmqsrO0tba3uLm6wsPExcbHyMnK0tPU1dbX2Nna4uPk5ebn6Onq8vP09fb3+Pn6/9oADAMBAAIRAxEAPwD4I2nBB65pAuM9/rT+eSevajaG619cfA8w1ht5x+Xahm+bkYpyru4xjn1pQMdPwp2Abn8DQc+nHt1p3Pehl9+vSlYLiLwpoVcGn7V2jjGKVQee4piuN5XrxxSc465/CnBdx6/nSnLEYH40xABgcDrSYw3PPfpTgvbFLgbT2HWkK5GAMDPrmnryMCnKo6AfSjZ05z2oATBJFLgHP+FLgLg0qjjI5FMTY3G7GRtpyqBkdSKcB8v3sHNOVeRghf609CbjR/490pVXsOmadtweBn60uQV/+tSJG7SG44pVHOCevqKf1UA9cc0KpyDjBpoLibOAM9uKXaF6/SlVQvBwT7U4DqOetFhCL0yBmhl3D+lOCjkdKcq9OMjoM0dRDVHy4/pS453D0p4U9/0pf4cZwfrigm4m3Oc5Jp3lj8OuKF+9tJ/WnsuMEHHrTJYxty8YOKkwcDn3oXPpn6DinbenYUxDAMdOfrUip3B6cYo2475B5FKils9jQSxNpbp+nWnKo208gdccjpxSqu4DoppCewgUBgMc96eq7icnn6U4ZbPFKF29SAvtSJuJtHuSO9OVdxzjvT9vA7A0qqQOentS1sSwRSOuOv4U7aAOOn505VLKSMdKdtzkg/hQA2NSG45OcU7ac8DFPXsQeKeOScdR3oENVT68U7yhHjA+tOVRnnJ/lT9mBj+QoYrjFUdMdaeo28jpnrinKDyCDTtpUEHrn1pB6jdv4GpEj2rz6ULH8x4zT0UgD+KgBoXLcjtj6U9VLZJ5qTbznj6UbTt6/Lxn2pagJtLYxketSKuFx/8AXoXJHHA9ak278HHTjIoEhirhQDinKnp1NSbR0OM+9OAxxnJqR6DVTkfpinBT6D0FO8vGCD2xzUir65JqQIlQ8cZ5/KniPgnvTwD6cU9VJwSBwaBkYUjHIx0pxT1HFP29c9PpzS7QTkgnHSkPfUj2jnP5ilXOAQSMGpMH8PQU/aTjIxTuC7kQXr3GKMfLgDrUoA59R+OaPLOScfjUlEW0L9acoJXnipdgx6HtTdp60CIioznGPrS9OmSKk2kYz/8Aqo2kncABjjpQMiIXI/mOKTA+YeoyeKnxtXkZPSoxtzn+lILEbKV69cU0j5jnjscVNtz796CoDY2k9zQUQMpbv+FIyfN6HpUzJyTjJpOeD+FGxRBx+GOaaI8n7uTU+35sAZNN8vrjk0ICHHzHsM+tMZffBAqww544HrimOhzgdKBakLLxnORjmmMgVfVeOgqZlO4D2xgmk8vLcdOlC0GVtpLY9eaYy5bA/SrPrgYPcimspUjGDVldCuVVec4NMZe44NT7TkD2prLzkDj1qREG0Hkjn9KZt+YFcCp9oJ4/I01kz0H1p+gEB6cLzUbL8oGKn2bTwM+1Iy8njPPBpjK2Dgc4Pb/Gm7Qqtx0/KrG3aPbvUbYXt2x7UAQNG27kYJ6UjIHyMYHqamwO/X0zTNvy8NgehpjISuOvAppyw64+lSsM/wCFMK8jt2oF5kXODg5FR+XnpwKsgDnjBHHtTCvzUDuRH72cdfzqMJzx6dOtWGX5c5yBUe3nHX0oERlNzZ6Dv2pu08dxjFTbTyOtN27TwMk1W4iHaG7fpRU/y4HT8qKdkOxy1Axu4GBinfSlXJ+tM7BoXb7mjbin7epwDSegx70ibibfmHOfxpT8vHendemKGXaM9O9MLibTtHGAOnNG3HPJGOtPVdwB6d6OH60DuNXFKV5HpShdp44Y9xTsHnnj2psTY3Zu5LcUADb0pygqoHX1p3Gd2P8A69Im4weg4XpjvTlXDdOnUU9V6cfpShemelMVxmNwz78Uqruwfwp20HGeacoGAMfnQIZ0OOTTlxg4GT7U48dBx0pUB3Zzx7UANx8x/wAKX+HPYdvWnkUu0ccYFBLZFt6d80/bhsfw47U/bt9xnrQ2WJxz24607ANHqAKVQNxO2nrH69cUvC9snPFO4hv3V6c5p+3puHNLtzjH60/a3c8LzgUEMjK/LkDNOHzDJHSnryuM4pOORnP1pIA2hevAPqKUL+89cc07YQvr6UoXb1GBiqsTcayELkjApwUbecHtT8ZYEDApVXoPxpCuN25zxkfyp6x8dOnWl2/KO46Z6UqqFbI5NAhMfN/ezTtvbOPfNSbc5GPenIuMEigm5GB0XGT61IIztAxz3p2DvG47hnp6U7buPHHOKklAidQB70bctwv1p+0fdx9RThGF56/WhaIBPLKgkcnvTwnbGT70Yzx+BzT9o3cHIoEIqYUjHGcZxT0jwCelKqjr3z1zTlGQMHJxyO1AhAp28dR60/byB296UqehNPxtbkZpANVSFz2zT9vPH3utOC+vA9KUfN06dKOoCFTuzx6CpFUrjHBFKqbhjO4elPHXnhenegBgQk8+lPReo6/T1p/l/Lw2e3NPC7eAe/pSERgdievYVJtwcfjil2nOCOlPVcrjGfxqQEVAMZ+lPEY3HI57mnqozjH/ANal8s4z0HfmkMaqnseKkUE47nv7UIu3IHrxUhQ9e2ck0h6DNvsfenbX254p6qFzjketP2jaec0CI1Xb3wR60u07eTk08R4zkjPanLGckZ6VJYzaGwRx6URp83QdOM1KuOg445NLjaOg9eaAI9vygZx7UKoHBFTCP5T39aTbjBwVHekwIvLxyeSDyCaXy+euM96lKbm+6OKQx7v4aEBDtLqc84pefSpQpVflGR/OkZMc45BoZRERznqO9Iw+v0qXb3Iye+aUx846mkMgCj+6KTaOPWpWQjqKVlPuB6YpDIdoz1yetIw2EipNvopz60bRxg5z60x7EDL0bkHpSMpyfc9qnZQO1MCE8kE0hEO09xj2pmCc81ZKbeAOajZVznvVXGVwvysehFNxzyTVnaMenf8A+tTGXg4XNA9CDyynIx9Kay1NtDc5wcdMU1lK0wZW28nB701lLL2AqztK9P8A9dM2jv6UhalWRfXgZo2fex+VTMuB6imsp5x0HApoZW27c4H0FMaM9Tj6VZZeo6EdqZtH1+tO4FfZ82APemsvy464qfb83P1yBzTWj29DnnigCuy+2e+fSo2UHnH1qztPQ0xlxnjNMRAyhVA6j2qMKOcjIqyVP51HtByeT2pjIWQjpyPrTGXb045xVlk5zjmo9o4yM/hQGhC0ZXk8e9N2k8HkepFT7RtwcCmFct3BoQEJB9jTdpHIOPapmUY9O/Sjg9ucYpiIVBxyM0U9lO45wPxopD5jldu0EHp9aVv5dKesY5xyTTio64NaHQRhSfqPwo2/KM9fSpNnJ4x7UqruycmgLkbKF6U4LlsAYpzHApcc9v8APamO4zB2mlwOAT1FP2jA4NO2jp0wKCeYi2le2BT/AC+p7UvOAccU4ITjv60BciK/N0qRUPUfqeKfs+Uc9P1pqqePb3oC4KB170FRkDp26U+NDwOv1pdm3v8AnT6EjPLPI70oX5vX/Gn7CPr9etOCjp1J6elFgGY655o9+q1Jtx0PPpTvLHPOcc0dAIwp3df1pxUbqUIRjjinMPl/+tQTcZ5YHY0oXrzjjrT9vcc07Z6Dj3qhXGhc9cZxQF6r+vapdmSMc496ULtB5BJ6VBNyPaOADgH0p6/Lk4p2zsOe+aXHy4Gee/emGliPbuY5PSnKob5SOKekfTAyfpTljywHBFMQwqO38qNv94//AF6lTd3G30pdp+g+mKBDVUdAOlOUdSAKdt54GT1pQu7JPXtTI1GY25Pt2qXacA54xyKdtC4HanCPd0FIBqrweppwUDA6HpxTtvUEdunelCgYHTNIBQobgHOTRtHQDHtUijA5H1I5pfLIbBHIoROwxYzzk4z6VIqfLtxgU9V54x+NO244ByO9K4rjDtPanKuM4G6n8YAAz607aFGc4/CjoIQRjnt7U5VPYgEdqdGu7nt3waeq/NjaBnmgbG7TxmnKuWOTn0p+0DjHFOXqOKXQQm3uOad5fyjjmnKnQU/y8MT0NMBqqfenbAc7vyp4T0/OnqDxgZ7mkAxVO0nGaftO0YIH4U9RheMAdqVB2xnPfNQ9yQEXJ5ABp3l7fw7/ANadtC/d5Ppin7R0Py/hSsxjFUH6dTT9vQj6U7BZcjpUqp789aRSIwv4exp4TcpyOtO2hsYGSadtBcgED6UBYYuemMj0p6rgZ609UwemD7VIFzz0PpikyiHbtcEY/pT1H4U7yw2OMe9PCs3BxnNSHoRFeBnpShd2O30NShOQTmgQ85IyDQBGV5wDmkPzLkjrU20LtbPPagoemaQxm0ehJzSFM9iPfrUgXkdhnnNJtx649aBjNvXnkUFeu364xUrLj69sUjLyWHNAyILx0x70nl7vqO9ThM96QJ83QkUAQ7cZHT601l+Yc8Yqxt9ab5R5wc0iiFkPJxjvimCPkk/rU5j7k+3FO2kHBOTigCsRxjHem7eDxnJqw0Z5FNZdvsccYpgQMucADPpTCvynAx71P5e1VG7O0fjTdg5zR6CK+0YOOw70zacg5qfyyVx19qTbg8Dk07lFfB6gbc01lHJ75qdwGOBTWXIx3PakIgChc9h61EVzz1+lWtu3I/SoyvTb+VA7kO3v+dRsuV9qsMvt81MK7geOfrTAr+/4U1lHp83rU+z5TnrUbD5ic80xXIGjOT1x1qPBUHjjGRmrWwcYX6io9vA600PYg255pm3a3Pfk4qcqT/Km7T69KYiv5YH500x9OPxPFWGU54/OmsvPH86AK+GycE5pGHzf0qXaep9e1M4ByPm49eaYEPO3kg96MbgcDae2amwOhGaj25z6UCIGjK+3FN2ZTGOfrU+zqM8+4pucZ+Xd2zQMh4XqGz9KKlKA9VzjjNFUK7OV285FJxkY59qkOOcjBo28DI565qzcZ1yM9+1L1AKgZpfL7lvenqij2oAbyBnpikwODipdvAJ6Gk2cjigY1Rt7baQKGUDk5qTb1wOvSjbuz/hTEIqnv2oxjvTipGSDmnCMDtwB1oEMVc+vtTlXcfu048dKdt3deKQhmCOo9qdtPH6U7aMZGM0oXGSfypjGFD+vJp23sB+NKo+Yg8nsKdg4zmhgN27gPypeB9RTz0/rShcY55oEM2bevHel2kH+VP27uhGO1P2hieDkdKQhgUcEn64FIB7fTJp4Td6808KG4ximSMWM7jjrQwwcnp9Kfs2/LjPrinqOpAwKEIYoA9hQV5PGOKkZBgHGPSn7BxTE7Ee0k8DIxzzSqvpw1PAO7I9Kcqjk/wAqBDdvXIwOnNO29MDNOWPcpyads6eo9aBMYqlcj3496eIz6Z96eq7hyKUR8jgjvijqIYE3e4z0p3TkcD0qRF9sjr8p5pyqFXd3/p70CGCMsx7GnbSvHbrUgXsVNPVcZyM/QVImMVdq8ce9Lj5eOVzUgX5Qc8980oUK3XB7cUBcaF65GOOtKF29M89alAJI7il2ZPI6UEjUXseW9KkCg4HNP2nsMGjaeO1AhqqVycYH1pyruJx1p+3gjvUuwcc55xSAiVe3WnqvTIHtzTlj9u9S7c8AY9qAG+X83v60KvoOOuakCj+Ec08Kc4xjjvQAwIFydvB96eq7eMHOM5p4j29Bg+tPGVwcD0zUj0GiMfWnKMk44A6mn7Sx64Pril28gAnb1681PUNwVenrTlUD6U8r69afs7Yp3DqMWMdevcU9UPQcY7Zp6rnq3+FPVB2HbqagYzbx6H2oEfqcHvUqr1zg/hSqueMZ5ouAzbyuOlO2nJxxT9u3Pr7U9V6ccdaRRH5WQRn3pQvfv0qQfMeRjPFOK/KcDmkwIwMDr9aFXdzgE+uakVTuznI+lL5e1e3vUjI9u5iAPwNKIwvTr6mpVXLcD24pdm5ckfrQPoQ7Rj/69J5f4ipvLOW7UbeeuO1MZFsJ7YxS7Mjjjjj3qZVH4e9Iyj8fTFICDywOc4HSnbe2eal2jaB0oKnjjA6GjqPcgMeRkCm7eo5qxtGcgcemaRs8AfnSGV9vB5pG47YYVMVC54zRt+b69BTGQc7jj8qZt5Jx7irLKVQe55qPb79PWgRCynbk8+9MZepPBP41ZYD147Gk24Xpx9KFoMqGPGD260hjOMjn2xVllO6mNHt6HOD+FAtStIOnGKayDg/0qwwyMDj1pjJgdM+mKd2MrsvbOcUz7q4J4qyy7XAAyO/FMaMKCO1ICrt6EdKayEdSAR6VaZPQADFRGM//AKqYFYjaTj1601l5P51ZaPtnHrxUZU885piK7RjrTNoGeML3OKteXwe1Rsp65x600BXaMbgcHFMZfl4GO2anZNueSMf/AKqCvYj680AVyvy468VFt/EflU5jyTwQaNvU57cU7gVivoTzTfK3Z6DNTgN6DrQUxnHf0qhMrFd3y459aaU7gkj2FTFRx2x1pgXbzn8OtAiHHJwM49e9NCgdePSp2QdQKY2cjIxtoGQ9PX8qKl8v0Jx9KKBaHI4yOmfWjaS3tTth25BzTz2GMGtzcaVGwYGRSY+bkcmn7ent6CnMD06j3pBcYyn7xH5UuPl5+tPZfm/zig9s5qb9BDFVTgcAU8D5iMU7YFI6Y7U4qvUnPPWqC4zksPehRjJ4xTwnJAFO2n0welICLb0I4HrinlQOWz0p6qO3I/zmk2+2O/NArjdpC+i9PpTlTacDnFP2nHB/+vTk4XK0CuMVTxn9KeI8452ilaPuSR9KUL75PSgBu1W7847U7sTw31pVXryRn86cynuMCmK4zb0zgj8qX0A5qVY/lGOnvTQpyRyKEALH+GO9KAvGRknvTwozgHJ6ilxn+HHrVAMC4yR60oUnOak8vPTB9qVVIHJzUojXoMVPlA708L83XP0pyZzt/nSlT64NMWoz7vQEjHFOVSy8r+Ap/oOvHSnBBzxQIi2jnPA7DNSrGMg456U5V6Zx1/Gnlfm6HOeSaQmMAbqBx9OKUoe+QOvFSKrfKM805UBGMZNIBioN3QZA5p4Ud8Y7GnbcknHQYp5X0xj0oEhgX05GetPweCeDTlUtyF5pwXGeeaBDFQfX1pyqeBjFSqnbknrSj24P0oAj2nJC/pzUiqQDnJFPVcKTxmnqvy49+tADFU9MZFKFP446VJ/Fzn6dqk2YkwTuGKWoiJV569evpUix8gHkUu0dc9eKkVfy9aAG+Wc89f0qRV9Bk0bfTt71KqfLxwenNICPaWB7H6U5Y8Y/n3p4XoP5VKoA6ZFK4DFXtj86XaevX09qkCDr1571IqDaT1FSBGqnrx+FSKu30wTzTggX2xxgVJt+Y4yPpRcOoxQq9Bn2p4yeuOOTUgToBz7GnbPmxU3Ghix5APp7U5VXjIOfSpFUbfTsaVUJIxwKB2G7Rg9vT2oVSRj72PSpdoX1pxjHP6GkMj2BeTknNOVVz079DUnl/U+tCrjrx7UgGbcLyRn6Uqrjt9akwKesf93jP5UDItuMcZNKik+3Y4qQRk+ufypVXHHepKG+WOeSD701lPUjj1qfyweoyPSjyyGHf2pAReXu9x6mnAbeRwfYVJtXnPbmkWPDZzjP4UXHYj2+30zSFQccAY68VMU3HPSk8senPb/Gncoj27hkD6Um0jP+PSptvXIy1L5Z455pICts75x7mjy+oHUc9asGM9CODSFcKAcHtSEV2QA9MU0qX57/AFqcr8pwcYNHlnp1OaAKxX5cHjJo2HsOlWFULgdO2KYY+pHSgZXZQh+cZ9KYyZzg9qssuR15xTfLHHrQBVMfb36UhTn1/lU+zOeKaU2nnniqAr7emcUxlAJx19qstGR1HSmNH7g/1oDUrMvAOP15pu3qMcd6s7QuMcEUxlyCT+FMCsy9cDvUUinAOOe/t71aIx7D/PFMMeVJP0pAVmX5WNNK+g4x696teWc/yqFuP5UxEBXBwAc0zblckc/Spyu7cP1pvlhh/kUwK5UZ9T1NRtzkeverTKPr9Oaj2/NgDjHemBWaM5yabs+YED/gWasbWzk8kdKjKFieMH1FFySIR9/X1pjRnuB1qxt6ZOKZtLdse+KpCK7L3OOvY0xl9+OtWCuCSTzTW9wSPWmFyBvvZX9ajZPU4FWWHU9h7UzYNpA6+9AEAjVuTtFFThSvHWigNDjFXJHPvSsvOccipFUlexpcDIAOR7VqaXIyOvzdOvFLtDdyT9M05V688+9SjG3nlh1Io0Hci2/L1xQFI9zmn7d3c5604KOD3pgxgAQZxnNLtHH9KkVRjpg9B70bDgc/iO1FhDQuOnApUyWBK9O1OC5UEg9acR2wfXIpXGM24wQM5owPwxU20EcYHfrQqnvR0EMx6/KB+VLtyAM4Gakx1PGKNvr/ADo7ANwDxSqo4GPfmpVXcuB35pNo3Y7+1AaDFXc2elPC7gMcAe9P8vjjqaULjvxn60EkbKOARTtoyeO+OKk2henX1pWj79/TFMCPy+n/AOunbR1/rzTwvTjvzThFuPPHHJouSN2Db6d+aNo7DHrUoU9O3tS7QOvH0pXC4xY8LnHHvS7Pl6dOakWMHnNKEBI/XPemK40KPT8akVc9OKcqjdjt09qcF4A9eKQESxk8np7U5Ux0/lUoXjA5Jpyrzx+IxQIjCnv2460u08AZz2qQxhvp1z708KGBz1FGpJHtJ5605Y8Lg4xmnqmzp3NPKqvYj196AGBBxShd/qfepVTkkjjtShQuMcH+VACLGDxnPenbRxg80qrnB+919qk9cnFAhm0DPPanKucdyf5U5Y89R+lSbcLwCe4oFoRqvGelKqd/vKe9Sqp6DoO9PWMH29qkBqqdp4/OnBeTg4P1p6x7s+tPjTseuepoGMWPrxu704r3PPY09V+Ug/pUiD9aNBEe3knpx2qRYiMkccd6eq0/yhu5ycVO4yLb7dvrUyqQuMcewp4Ucdz06U8KOc8nvUgMVRgEjHPY05YyeScfWpFX5gDwD2p20/Tt1oGRpGW2ipduDnOB09acsY64zxUiDdnGD7dKkdhmw9CaXy+Qe+Kl2DgAnGe9KobjnNIZGF6EcE+1P27RyP1qTbuHQg+uaFjzznikG4xRljng45xTlX5fWnCPa3TJ96kMZLcj5fYUD2Itp78YpxQNgn9aeUzyQCf51IseGORz60DIVUE4PNOVMA5yKl8vaSyndTlX+LbmkMg27aVQVyen4VN5f/1qeq7uc9O9J2H0K7Lz6cUqx/NnoO1TiPOec47UCPP4elSMhaILnjmlWM+gxjHSpthXJPT86Xy9pz/I0gK5j3E46elNKndjFWdny+9JjaMdTRewyDafc8Unl9u/9Kn2lW+7Rtxz36UwK+D1xnn86QRnaM96sFCo9B7U1lyw3U7hqV2T2xz1pDGvXt04PFTbDu5wd3FI0ZOBjFICttC/N1/rRt5BPrU/l9PrTTHwB/n6UXGirj5h2pjJu6DmrbLhOeBTGU8gA00wsVCmM/yprqNv0q00ZyD7/hTGjz6EUAVPL3HI6Y701l54q00fzYPHrUTJ0APzdRTArtGAwB70xo+Me9WWUFc9O/FRtH39/rTEVzGPoetMdfl5Xr0q0w4wemaj2jd3wKBFXbjpyaYy7cqevrmrTKFb0qNlDZyMjOM0+oFdl2j36ConQsfQ59atMvFR7enT8qewyuI9vfP6U3bgcnk8Yqw0fHB9qbj04amQVmT5uevpTSh3HJ/+tVgqG6cU0qeuMHryO1MTIB3z2prJ+XQ1N97gAimbe3bPei4ivt2sRjNIVPJxgGp9vX+v9Ka0ZbqMYHTHFUMhEatzjP44opzRbuwzRSEcYq7V9aXAJ3Dj2Ap+326dOaf6etbrYu5GY8qD3NP2lu3/ANalVNrZxT9o7857UILjNo3AnrjilCk9P1pwT5gcZ460qxnkn8wKegxixllPf0pVjPB79eKl8vqcfr1pdoXqc5pCIwu1ueM0u35sj8aeF2447cGpCvYnkGkK5H5fyjr64xS4K4wM+9SKu3GT26UscfXkkf54oC4zZleMk+1P2nrt4p7KGUckD0ApFjLAY6Z60BcbtK9PmNO2j1wfSpArbjwMUCPOSfzpgN256H8zSqvXHT6U9Y845z74p2zOBjjNIRH5YXkY/KnbTuz+tP2nkgHAPJ9qeYsg5GCe9AiPbn3z6UKu0AZAJ61IIwue/tTzGQMgbj1zQBHt65AGKcI+emRUiqeD1p3ljB4x/s0CI1+XgDIpyrz6H0NSbRjnj0p207Tx7UWDzI9g4+venbOOOf51IqiRucYpwjADY6igCPG1j7joaft6DqMfhUgToTzkYzTljOKOtybkW0dm2+9Lt7Ag5FS7SvYfTFOWMZODimIiC7Rzz9KkXG4nH19qkVRzzn2FL5fAwKGG4xVxwc+9OVeg7evrUnl9eMGlSPcCD2pANVMdtwFO8vdjAznpzT1Xk44NSKvzYxnPNAEf1HI4HFPaPvjp0FSKvXAycc0oTaxPSkLQYFA9qeF7Z5qTac8cmnhM9uaBkSL83PSpOPp+FPjXLZHHFSeWTz7VLAjUf4VII225xxnvT1X92O49Keq/Ng9KkCPyznIz+FSLGdob9KeFG7p1p4iOSAfpQGowJk9P0p6xksc07y8KM9KeF7dKBiGNcDPFKq/dPP8ASpNnTHB9KdtJY+1SF9RuznFPVMYBJI7U/wAvcKVV55PHXFIoYVz+fpTtucHsamUFeMYpcc+gpDI/LI5GD704KNvzHmn4PT+dPWMYGRxSvoNEYj3A9z9KVYg3XipvL3Dr0NOVOvQen+NS3oFiNUwxHb1pdh24PrUuw9Sc/U0eXuLcDnqKBkSrk55x/Ol8vBznGamWE4HzYPb1p/l+vPPQUvMa1Idvze/anLH14BFTeX83T8TRwvI6Ur2H5EJjPp9OaXy+BtP41LsyvFOEYXn0pDITGG9vWgKDnnJ6VMIx0Jxijy9vekMrsrA5yaXZ/LFThflz1Hemqu5gD09qYELJ8owOOmKTyztxmplQqT2o27jnqMUr3DYg2rtHSmrGGbJAz6VYZT0PPpimtH09uKNREDKMH16kU3aNoPfFWBHzyO9NZOmP/wBdBW5W8s8Anp3pu09ufWrDR98U2Rc5H93igRA0e4d8VGVPU1bZCB1z9BUZUdDwMZoGis0YTvzUYXb71aaMVGy5wMGmBWZA3zAY96jKA+1WmUMfXtzTGXcpOMHtVXEiqyhh93B6j3phj4PAH0qyybuoprL8vTHuKoVim0e08jI703yz3+77VakUqTxn+VRsuACODTFqVtuO/HqKbt9RkirBTapPHrUZXcD/AFoAqsvyg44z0FJt7AcmrDjDdc0x1HPGPpQLoQMu3PbnjNMEfU1PtboOPemtHjnJz6jpQIrFdvak28nsfSpiueSM4pNv8IGe/WqEyv5Z6EfUU046DkdKsFAyYpjR7VyBzQBW2nGBTdvPP0qx5YwSKbt6YqhECkd9o+tFPZQTyCfoKKLD0OKVQV6ZPTmnKMHH3akXDYH6A0rKeFJ7d+tbiEVRkjk/Wj7uOgx604KcDPT0FOWMd+AaQIjClupzShOetPVf71PC8dMD+7THcjVQv3RznuKdt9807yz165/CpFBJAo2F0ItuMcAD2p+D6dad5fzEfjT9h4yvNJvqBGFxnOB/M0/aOh4FOwWTng+4pyrnPr7mgQzyxnIHTjgU5Rtz+mRT9g6duh/xpVXLcgY7UeQxm0rjjJ/lSiPrlselSqp6k96ULk4/WmBEsYjbrwfWpNo3cjb9akVdxz+lBjwT2pAMWPd7jPOaeqqOM5PWnqFwcjn6U7Zt2jHWgQxU4Pf3xS+WvBHIJ5qRVPBH5UbD09PagV7jQvQZoUEcevepVTjke+KVVOBgY5pjI1XdwRxT1TnvTlU/dHA9qcI+eASfpSFca0Y6Y5JpVXdjHH86kWPb61JsDHI449aewiLacH2p6qfTnt6U/GMgj8aeF7cjvxUiI/LJYkjOO9GzKnPb8al29yT9KeYzxkY/GgCNV+UcEmnqm49OPyp2PmwOval255Ax70wYm0c8cj15pwweox7U8KFYDqfYU5UAIxnNINBu31FOCjk1IsZ7cn+dKFGMljn0oCyGbePQmnIp+6RwOTipFXHK4znrT1Xd7/rSEM2jkkU/y8465x1p4QNnjHpUix/L2xQMiVBTwuDyOM1KqHGcYFPVTnnAP51LAj8sNgfjT1XuePepVQBun14pyxjbkdKQrojXCtx096kVSV6fWn7B60qr82QKQxpj5BB49KkWM7uhzjNPwOf4eaeseRjOfUmi5REFLYG35enFTKo2rxn1p6gMeAPSneWecdO5FRcLEeynrH1OQO3FSDPHAbjvTtu3HGPXijoOxGsfGWxil2jgYyCalEYbBHepPKDdcDvSAh8vPHUY705VOTgYFSrH/PgUoUcgEcUihgjwCT604LnHH09Kk+82QPY+tO8vbtOMfWpKsRCH5uBUnl7mAI46+9Sqm7HPvxTto6gZHpRfQdiER7cEce1O2c/NwO5FSsvzZ7eppfLOSRxxU3AhWMZAJGad5I55A71IsYwDjGKdtyvt6UirEOMdQT2pQn97r2qYR4x354zS7DjI5GPyoDoQ7R34ppjPNT+X2P1+tKc45GSaAsV9o444zjFGw+vfjiptnGfQ03afTI7ZpXGR+WQT8uPWk2dAMD2qYr69aaM7iDkn2oG0RNHyCaYYzx3qwRtyMZpu3H+OKVx62IBGRkE849KaVx9KsbSfp7U3aOecimKxAV3Y7UxlK8noasGPapOMCkZcKM9BTArNH8vGOeelMaMZPGPTNWWXrzjPWmMo68/hQIrFcqADkdqTb3x+NWGUKuD07GmNGecjjHGKQNdisyke1RbBjp9as42tgHt1pGUHtg00LYquvpnP8qikXJ9atNGTwTz65qN0OR161Qir0B/KmMueAQeatNGCBkZ5qJkO3rz61SArsmOCfrUe3ovTPQ1akUHgZ4PrTCg2jjpTEVtm4YPfqaiZTyMcVc2jbkjg+lRyL82Mc0AVWXbgAYFMkHHy9atOAcHrkUw8ZzjOaBFVl285xTWQbQMZ9asSR5Iznmo2XAHPTj3qySAg8f0ppXPT6VOV6jGeOpppUEgg+1AiBlG768imuvPrU+35W45xxTWyT6DjpQxEQU9l3fhRT13LnDd89M0UwOG8vjpggc05YxjOMn3qTZnnt+VOVducDB/nW4rjF+VcfjxSr0wwyaeF28Ac/pTtuFPP40DI9mc9S1O2njn8KfjbnvTgu4cjigSGFc4HakKfKOoGcVL5Y7frxUirxxyMUDIlX8u9LtPPapV+YnJzn1FKqDHTpQFyNk4BPI607aO9SqpYjjFLszwfzx1o6CuRY+Q7eee9PC+vU+9Sbdvy/wAqV1G3rg9qB3GbTtH+c09QNoyMmn7DgEnP40oxjCj68UCYzaV56mnKvsKk2/N+vNKqnaAeKAuM29O470Y55GcVKqjrnHfkU9Y+vPf0oFzEQX5s07aepGB9Kk2H0GelOVQeG6UB6Ee30HvTtoZgMsAP0qTy85z3p2Oufm+lA7kaptbGMGlC9OTn1qXbwMDFO2BgpIGc8UCRF5Z3dffgU9Y9vPT3qTYQMgc+9OCfLgnPrQIj244zz6Gl2/NxyfX1qVFBHr2p20seuaAI1j3YPTjvzT1T8Kk8vBxxj9aXbnoOnvSAjUH04p+xfrUgTOefw7Uqpu9j7UxDVUHvntTiNpODwalEZVsHr9KeEBY9qQeREo7dM/pTyvzZxnHNSLHuHoc/nS7ffNFxjFTbjvT1jyvAIqRV29+fzpyx4zn1qZCGbFyTjIpRHtUc49qm8vJwORSovT37E0hjQvHHXvUixjG3GPWpAu0dO1PSMdsVNxkQjHGf8mnbT9c9hUyx5bNPVT2Xnv2oC5EqfLgD3yKfs24GMY/KpPLPrT/Lx7fSkFiPywMAnjHanr0xjBqRY+/pT/K43dfxpeoyNY9zAng/Wne/J74qTpyTz15FOVQQRS9Rke3I3E8+46U9V+bG78akCdO34U9YwRxzzSvcZHHHtOeMU7bgAj8jUvfgcU9lyR/hUsZEI84OMjvSrGGXt6VJt5z057VIsZz6DPOKRSXcZGvzH+LtT1j7t1NSqgLYOBjpml2gDkZpDIvLBbk8dqPL+Yce/vU4XcenalC/KMjnpUjItmc8ZpyqF4PSpVj79P50q5yM89qRRFsHIAyPSl8vHDcdql2g5GKNvXrg0AR+WAvTt1pNoH3elStGPU8Um3qqrSHYj/Hnv60iqWzmpwvcfeNCrlvQ96W5XmVygAOTyORikMZx0+v+NWQoGc/nik2g+v0FAFfyzgc03y+fQdelWNvrwaTbnGDk+lAyHYcn1pu3Ix371Y8vH3v5U3y884575FAiu8dIydO4x+dTlSvAOfak25HpxzTHYqsh5x8v4ZpNvAx1qxt5x+lNKY/+tQKxXZQ3Hf2pu3PJGQOxqdlyOv403yyMcZ5+lAiCRN3TOOnFN2llx3AqbHXOMfSkZS3Q9KaYnfqVmQc4GRTPL+b8OuKs7QMZNNYHOSM9sUEsqtHkndnFRso4BPHpVlo15Jz6mmMu5fTiqCxVx7ZGOlMMZHQZXNWGTtj/AAprRYwDn86NOoFVo9rdefXFRtCPT8M1bYDriomX5eveqJ6lMqd23bjNNdC7cHjFWZEPOPu/55phXtVgV9ny5xio9nTnjHOKtlcqeOhqIoF6HikJsr47d6Yy9fTPFWTGHUH8xUIjOcYz70CINuMY5pPLIXJB+gqcLzkdelIyZUe9Ml+RBgFQV64qPb7dKsFSGx1prYyAO3t707iK/lnsox70VOse4Zop6AcL8vTGDmhV6/N+ZqVF7CjaMcdeproJGbeMZx9KcI26f/XqRR5hBPbrTwvQDmgCPyx64PelVPcntTlUjvmn+WTk+ozQAzaegGBShSuCozUgAJGaXpkYyaAGD/JHFPVSqg4xTsdOhAp3lZbJ57mj1C43b06/zpdp5A/HPFPMXTnNOTjPO4UB0I9gB+npT1QHk8kGpfLG3I570gQNjnmjQSGspPT8u1KF2t0wMdqlVeAcYPXml2EDJ4/Cj0GN27sAHrQqlm6YGO9TKoK+xNKFLdsH2oAYEIboG5pfLHv061IMq3GMineTycAc8daQDAnGefSnbdrD37U9ozjg8U5YwQflwetADFTaTmnKg/i/Wn7RxgcfSnlD1PPHQ0CIduevX2qQKA3B57U8Rndkgg+pp6x/L75oAj8s7iDyKd5foeacFLc8ACngAcYwtAEax7QMnHt708RlcDrxUnllhwe9KseWHPPQ0gGbfm/Wl2leg+tSBT2/HFPEfTHX09qfYQwKOp5+tOAz2/KnrHlf7o6YqQR9OoP0pXAjCjjjinbegGOPSpRH04pwUDGeKBdRiru4A+oxTlUnjH5VL5YPU05Y+AOT15pFESx4YjtUixgHgDJ9qk2bsDOKcFPbnNTqIZsDAdVzT/L3dsfyp4X5sY+lSKgUd8jikMiVOc9B04p+04OBxUqoTxj2qRYwvTrjFIZCqY6ED609VzjvzTwvPPBqRV4z09aGA0L25HNKEJyegqXy89DinqhORj7xz9aQyJcdPzzTwg3f/Wp4XOeP0pyp8o7jOKncoaq72zjd2NKsZGe1SrH14xjk1IIw/wD9YVI/MhVSSB29ae0e0HqKlWEbuveneWWyMAY96LjIwnzU8INvpzUvlnBOM809UCr6fSlcoiMXzcDin4wvPH9Kkjj6HktjvTliOAWx1oGRmMnnAP6mnrGCeeOMVII89M+lO8vbwcc81mBHt+bpxjrS7ceuKlCgjPtil2ewBxRcqxFtPBwKNoU/zqVowcE9PWnBMMe4ouNIh2Ec4zR5fcH61Oo+bIye9KwB6fe9AKllEC+ozuxQY+5496n8sjjHWjaMkEE0DsRBBgn+VHlkcZ49an29D36UhjDYx296Vw1INnzY6Gk24wp5HSpwvJxxigxjJ7+9MZW8sjtj1pPL5yM/lVnYR/8AXpqxbe3UUB5kCx54H5+tIEG446YqfG3Gaa0ZPB59celKwiAo2MDmmsv+zn8Ksbdq5B/PrTWXbkDljxTDYr7OnrTGUnp+PrVry/lJJ21EV6elAEDLjJ7dOaYVX6e2as7SzZP060zYSvTr39KAKpAC8jjtSMPm9R3qwy9wM803aNue/tTFvuVmj+8Dz6UjKpyPep2T5cmmsvTjj1pCsVmj6jP+NMKnPFWdvpUZXcCTxVCK7J1zyfzqIxjPHJ6VZZfmz1/DpTGX5vU57UySrtzn/PembT1OcH2q0ybuvC9DUbKOB0qhFVk4H5VFtC+5q2V9OT6Uxl9MDnpTQFVlCdcj3FRvH6jH8qssm5jxmmNGVGccU07uxDKzLtyO3cVHt24HT2q1tDNwec/hUbfe6YpiICvynioyvHTHPFWWj9yaY69PWmBWKnrj/wDXQqjkHrk8YqVVK8k4/WkbHPzc0/QTIfKJ/wD10U9o+ep/DpRQI4bo3p3zinLHhacq/eyMrilVDjAz9K6jMRfl45+uOTSquMnH50/8Dwewp6xjaxI9+tSFyNY+hxTlUrg5696f5fU5yaI1IPb6UxibfmPf+nNLs2+xqTbxk8etO2DgcgU0BGqfN04p/lhlIU/U04LtwNvP15pyr2465JqWA3ywSSp/MU4R+nWn+X8wHU/pUhUbj/ICgLkG3qCeO3vUrYGOxFPZenPSlVDtAA75p7gRqu7gZHfrT9pA5PH0zUm0H1PtS+WO3BzS23AaqDJz+FOCkEg8/SnrGfpTkHUHkU9wGrj+GlKDpjHenrHxnk89u9PWM8Me4qQI9pXtnuacAeCee9PaM9jTgp6Nu/CmIaYwsf8ATpQqcehHSpvY84607bnHajoMjVemRxj1pcYAwO9SJGdvNOx6A469KBEYXpninCMcccDmpdu4c9fXFKq7cnGDQMi2dOCD+gqUIGbOPrTtjZHfmpAvqOKQnuReWNqr09KeIzn8fpUnTGePenYDAY4PvQMj27eef5U5VG31qQKOnOPen+XtUAnildAR7MjKj8RUqoeP8mnbPl6Hg1IFA6d+OKkRDtweORU20emBinKgyO4pyxk4/TmgYxV2+1PVe/UVIFHUcD9aeqd1FAyPbuxg8ZqVV6AjrTlU89z2qRU64PfFJi9SNU/wpwj64HFSAAMMinhTyQBipKIljO3GOPWpgu7jFOVTuxjrT0xyB1oY7Ee0qTnNKsWWHapCMnqPenbSq9OKXQBirufkYOMDNO8sHAHSpY+hx3p+3aABx396Rdhixjd6+lPEecA4x709Y+hp3l7ceo/GoHYZt3DnsaeFHHNTKPUYPtSrHyT2ouUiMR/L6Z4qTpgGpQgUnv8AzpdvUnBNSAxV3Yz+FOVTuPHTv3qTYMfMMUuPlCjp60rlWIxGd3Y8cc0/aNoJGR0p0cfOARj2pyqMbccE1DGRrGQwJ9OlKsYbucD1qVV6/wCTT9nPy8YPegoh2Dnv24o2/MMd/ap/LO7OMCk24I4OO3ekgI9m3B6elBQH1BqfaeuaMbsnvSuUkR7RycDHpTfLCqOwqx5ZXjGR6mhoxgfkaLj2ItmPcfSkMQbv26YqcKe/8qTaccjjsaPMdmyuyYUAAZNJ5ec9+etWl+bjOB7ik29MAGpuCKxU7vTHfvSbD1znvVoqV+YcDHNM2Hb14PY07gQeWW7cZpgUD3qz5e3p+lNEY45ouBX2D8Kj2+/0q00XBxxzik8s+m7t0qriKzRjrjPHIFRleo4AxxxVjyyvQdabt6nHPrikKxXCDBGKYy9hx3qyy7ff600qV57fyoCxW2dcdfWo2j5PPFWtp9MDFRso5xx70xFZhzggCmPHtAHtVkrtHqc88Ux1PTBzTEVyu7v+NRY6ZGT3q1s29RjmmbQoIPX2oEyvIhXn9Kj8sY9DVhlO3GKYy5PoasmzIGiJ6njtULR45xznirUigA+tN28E9fU07klOSPPbFIY8MQR0qwYzzTfL9ck0XEVWQDn+VRbRzx8tWmUbRwM57VHszzk+9NCKrKR9fpTcH8PerKqOo4OOtMZOOf8A6xp3EVtuOgNR7eMj64NTlRuDY3AcU1o+gFVcGiuysV5PbmmFeu2rBjDMOSKYykk8dKCSFY+KKk8v03f8B6UUCOF8vkYP5U8Agc/jTtoVeOfagZHPf0rq1MVuIFG3IBJpeOuODxUi/NgmhAOmOtMrQao7DrinBPmzinqpHykY+tO2DvzRoITaOwpeOeKcq9+cY5/OnhAOQSD0zQAznv8AhmlCjdwKkXsQcH2FO25ycYz70hDFA6Yz/OniMZ4/CnbCvHYVIqkqMAUDGeWSQcYP0oVS3J4FS7N3LdutAXcpxwKBjVQcnHJ96esOev8AKnqobPQdxTlQlc9M9DQBHtOfUDoKeV/L2qTbjPcUu3nkfKB1NADPLwvfPWnqoAHFSbPlX86VVO3PT6UDI04yKcFBzkmpQoK+hHvS7Tu549KBDFUbeBinCP8AMdKds9O3enlQuOOtIQzae/ykU/y8Lz0p6DcB6U8R+vIHOM0DREv90DFSeWduRT1UEjHC0/aexzmlcCJVPp2p2Byc5HpUm07umM1IsYbJGCKd0MhVe2OnepFTC9cVIqleo4NPVSfXH8qm4iFI+lSeWOAB1PXFP8oLz1FSKvrz6UBcZ5eAefzpVXCg++eKl8sL2zzTtg3HsOlIYxF+Xjg1JtHTHzU7bxkHP41IqYHHWgZGIzwR0z+NO27gTwOelShfm2kYPrTlTHPI+lICNcYz/WnqpLEgZqVVCrgD3x2p/l9+vapvcaItvI44xUmwbepp4TbknIzShTnnkelIY1VCnk8YpVXoAP8AGpVTdzjilWLt2B6UihoU9c5Pc4qQIfu+/Oacq7s81IFD5PQ1PXUBgT1HtTlXbjjtUm3qD16dKds9F6DHrTKI449zH2qTy8/X2qZY8Zxxinqo9Mn1qBkezjpninBfTjFSrHngdPrS+X83A4z3qWxkSx7VJHze4NPSMZ5GTUyqD1Gc9OKcq9Dg4xSuiiIcdR19KVYzye9SbRk4J49qXYfu5xxU7lEeOgAOexp6x5OP51MF2cAACgxnHU/40D3ItpDY/WpPL3Lj+VSKuAMYJPrS+X75akWRbTtx2PpTggHbAJ4qXy9v8Hv19qcv3v8A61SPl1uQsmeBz9aPLPYc+9T7M57nsMUrKNuMYP1pX6DIVXoR1pfL68Z/GpQvTA47inBSvI59s0hadSvt9e31o2bcYwRip9uDkDr6UixgKSfoRTGiIR9z/Kg8jHQdqnaML8oGO9N8vOfTvxSAgZPlIx/jTWUZBIwan2DnPBpGj3YJ60AQFenHem7d3arPl+/HrTWUq2CADQBXaM7emMVH5ZJweat7Txjp60wp82Bz60xsqlQ2AM596Tae3OKsFOnYDmm7OnbPQYoJKzKxBzxnioyuOvFWdn4c0zZub+RpjKzIOM/hTNpxg8D3q0yk9tuKiZASByRjuaZNrlfaSp9RwaiaPcSc1aZRxzx70wrgdP1/pTE1qVthbPOMVGygd/qatOOcY75qNkG4HHTimSVSvf8AD60m0N0GB6VNjGew96Y0fpxQBXKfNgDHGaZ5YHtVgr8oA69DScnOeRVXIaKpjyvTHPc8VGw5yQBmrbRnnt71EVxxkdKa1JK20Nxj8KjMfHTkd8VaaPnsfxpjqDj+VFwKjRjrnB9cUxlwAMDp1qztbrUez5hx9cU0QVuQ3HH8qa69B1z6VYZNg68Ux0GcgHpjFMCuVH0FRFRtPf3q1sLL15x0/pTGU46VSE9yv5ecYBoqXYeu4j6UVQrHB7eg5/pTlX5uBTmTPUinhM5OcV13Oe4xSdwA470uAxGOvvTlQFsL6YOak2+mKXW47jDGehGT+lKq8Dg59xT2T5e+cfSnKvQ5z70C3QiqeCSSM9KdxwMc9OtO27sAD26U7b2PB7mkA3buOMY+lPCYIPUfSnoODnjNOVcdRhR+VAIjZff9KeIyc5NSbdxHP4mnbfmB/CkyiNY1GPT1zTxGMfKMd6cIv8aeoOOOCOaYDPLBwcYanbSe/OKkMfTHI9Kcq9R0qb6h6ESjgAjj60/BznHy1Jt+bpk07aBjjP1qhjFXOOenr2p6xjPtmpFX24+lOWLd0GBSvZARKOcGpCgZv061IV+bke1JtC45pXQIGULxilEWACT7jmnrGMbh1pyrhiccU+gEca9gPxxT9vqOnGKl7Nxg07aO4pAQqg6Y69KesYOex9qkC9+BT9uegxxSv2EkMRegHfjmn7QGGPSpBH/s/SnbT0xUjREse4dfrUgT1BzT1jK98ewqUL8vpj0phYj2rkYp20tkk8A9MU/aDg/xHqPxp/lnjPFAyNYyABnj0p6qMkbc1Iox7Yp+09SMetAyPy+nb+tPCAseMU/YfoO1PVS2KQDfL4HY+1O8oKRz7mn+Xu6Dn2p+3Hy4HHG2pDYjVflPHHapAp29OenNP29cgD2p235T69c96n0K6jNoIwcgdad+P+NPALEAZA609YTzjoaChgH4A07b8x6YqVUK59fel8sbQQMk9eam9yhFj7jI/ClEfzYGc57inxxk85BqVY92TnOKTHYjVFHJJzU2Cvzc4PanKnXI5Apyx5+UYB70ihqx889OuKcsfcDGfSpFj6dyacF7dPpWbGhka9+1Lz2PepFQ/wAOTT1Q7gfTqKCrEYj+UH7vOKcqluPTvUgQ+nNO2njbwe9Iduwzyx0Ax+FO8vAxn61JszjPHbrT1jLA9vapKaZFt5ApdvYjjNSqhbHBHanrCSuSvP8AOh6alJEXlnOMZ5p3l4xnv3qbbzgjj3pdijH6ZqXcoj2bcj2oVDwD9am289xTl/8AHu/pSERADcR0PWjBPI9cVKYx1xk56Uj47HIPpQBGVORxRg7R65qXaW7/AJUm09DxntSuVykRbtwSOD70uzPQVIIztzgf1o2kf/W4oHaxCvzdP/r0MnzHuKlChsgfWgRjke3FILEW35uoxim7cqfep3XsOeOlNKnb0IoC3Uh5Uj09qbt64OR15qdlyBxk96TaBjH50XCxAy7scAUxlx0AIqbaccjB6Uc/06UCsV/L/DPFMP3QMcdDnrU3qO3Wlx1596YmVWXrgYHbNIyjYBirDKOcAkd80wr6Dj3oQiqynaT6011HJHA9DVoqOx3eoqNk9BVXJKrLxnGO/So2UyZxwO/rVxo1Cn9RUMi4bkcU7jsVGjIwOv40zYeQc7fc1aWLGcD8aifDN61VySuF3ZUDFMdfX9aseWecjFMZfm55FAmVWUHPr15pjL1B4BqeRRkn9aRlBzgAE+tMRXbA6+lMZB271NImVPOCPak2k9TkHp3pkPe5V2bhkdcelM298c5qy649V+lR+WcHnoPShEkG3dgZ5+lRCMBjxyO7VaGVqNl25B9KpaE2KzIeg7/pTGTkjG4YqcqR701ox9f1piZX2HHPrxjtUZXb9frVhlXjOaayllJz7EUbklfyB9KKmyFxk/lRVBocBt68YHvS7cY/OpNpbOB16UqjCj1Nd2pyobswcA5p4Hy5p4GAQ3X1FOKg/KSG9OOakCPbj3+gqRV+XGKXaM8jApVX5uc9+/60DGMu5h3wakVOTuGSOaeV6c8DvinKvQdB3oAaF3EMeKfgfdpwXkY+UdMU/b0Pb0z0pPcBmzPOM896cFJbrj1FSbWbr07U9UHIxzQMjVf7w49qeq+w+nSnL90AkkfSpFXHBoAjVd4APTOKeFPQc04L7c4wKftyORg0gIlUcZz9Kl2heOn0pwTLdQM84FPClcY+UDvTGhqr3NKsfYdKeV6nqe/vTwhbtzikFyNV6d/x4p5U7efSl28knJ/GpY1/X3oWwyEL83Y456VKkZ64/Knqo6DoPanBB0AyfpSuAxFHPpUioT2yB2pdoZeRke1PRSDjHHtSAYseV4x9BTtpXGckdzkVLsKjgZ96csYPXpQA3aOCadtxx2PNPUdePzpyr14B7YzQNESpxg1Iqd+3uKl24zgfXmnrH8vzfXNIZEE9OufSpFT6Z75p8a9CePeneX6d+vtSuA1YiFIIGe1KqDnqfanlfl9zT1Urzn86QyMR+ny+9SqpYYAyOtPWMMoByAak8vcBzg0rgRgdx9af1xThGMj1oVBuAzmkVYTy8hh1HtTo1OPpUoUq2D9RSrH1HQ0ihqLye9P259vrT1Q46D69akYdjzxSYyPaeg6Dp6U4J5h9sU9B061Lt684/CpKGLHjoOKesfQ44qRV6ZJxTlQDvzUjI9pPIOM9af5ZBHGcc81Iq9TnoakClcgHnpSuUojNnpmnbRt6fSl2gsQTUiqMfToTSuw1I9uzrzTwoGAOPWpAo9efpT1XHUc5qTRXI9o6dPSnqgLZxxT2XOOeRT0H1+lDHbqiJY9vPGKeqA5J+me1TKu0HPUULHx7YqblIYIwvNPWPuOKcsRHT/GpI14yf5Uhke0cjv7UeWdpyOnNSBcZ5JHpSqp6Z60hjQpXmkVR06Gn4G4Zzml27h6j0pFJEeDuB6fWhUJGccVPtIGMdO9LtzjB+oqR2K4TLdAOPzpfLIXPrU5T5sk8+mKTaM/7RoHsQmPHv3o29eMn6VLsPelZeeOcUBuQ7McdDR5YX29MVMR6U3aOR04xzSH5kO3PUUNGCvT8al27Tk8k8Ck2jncPpQK3Yg25PXd3ppTqSDU+z0BxSMg+9gYpgV9p4+nWkZTzzg1OyHkgZ6Gm7QrHgk9aOoMrMNw6UxlHrj0q1sGeuc9KYyZGQMn3oEVuTz07+1Nk+X2zVhoyq9AKYylmPrVXFYgZS3AGAOKYy9s5qfac+1MZd3I4ouSQMuW5qJl7j8farZ+6CetR+Xu7Y9eaYFfy+SRgAc1C69cD71WWUdumKYy/lRckqNHjGOcUxgAT71b8sYJOGzzUZUN2x61VyWU2UHr24FMZSuPUCrDJnt7Uxsqv4Zqw0K2CV9eKZt+bGcn61ZZfb9KYy5zxg0EsrNzwaYR8ucZ9c1Oyhs5pu0h/UGjUmXcgKdskVCyjIyM89qssuWJxyPamtjPX8KauQVmUdu3rTSo5z6VY8sbTxn0qMxhWIBz3p3YMr7emQRUTJzweBVpgSDxzUbR+vJ9KZOhXb64+goqbyc8niimZnn6IMk5wB2qTYrYA475NLtHoevPNPGTgj6Zru1OVDdnQHGaXy+pp3PPc4yTUm3POcD3oAjXuCCfenKpAI7EU4Akkr/Kn7SSPyFACDIwPbril2nPOfWnYOBxzjpT1Xs3TPHrSK2G7QDyOKdt/4EOop6xk5PQfSnbdpyOn1oAUKcYPBoCd+/1p20seRjB/Gnbff9KQCKCoI5NLtxzgYHPHNSjBAwcdqdtHt+dJMBvllsZOAe1O2k4Jz7YpygHnoKk2jtk0XAj2DAI4I6+tP2/L+ue1O+g5qRY9uDjIxzRcdyJRzzwM5p6p1OcY9qkCjb0peGzng5yfWi40MVQeoPSpFUdB+dP2jvx+NP8AL/iAyBSKI1X5hxg9jT41bn+vSnhd3B7dqeoAXk5A5oERqh5I/WnhBkHJAFOVA3H41IF79f5UXGM8vHAHvz0p4GV46fXrSqOD7e1Sqvbr9aQIjVflzTlVcEnrngVJHGC2Dn8qcFPOBTGMCjIH8+tPC+2B/s09eFHYVIqD6fSpuBGseeRUqJ83PT1zSqoGCaft47Y6CkPzGKnIJP0p6p0/WlVeh6inrjjoDSuPzEXHbsOtOEZ7HGTT/LIByPxpY1646VI7DNp4HWnKm7Pp+tSKmcgfyp4hHU0FREVV4wB+dOEeBgt19acI8EDoacq7cZHTigYLFzjqD0NOWPdjJp+0j/ZPanqvUKO9QUhFQhvbtTvLx7c+tSKpBz0HrTlU7s4zUANVenOBjpUgXqcEU7aOvIPtTlUbuvahlWG42/8A16fj5j6Gl8vBPrjvTxH6fjSuWkRbB0x+GakjTdnPT06U/YPlBHJqTbhsfjUl9SPGFBPXrT1Tcue1SeX8vI9zSiPC8dRSuHqN8sg+tPWPPQAcdakVQGPU05U+U+3SpuV6jAgb+Hmn7DgDkmnRrt5xx3PrTtvynPA+tJjt2GlOnOMd6UKe2Ac07y+c4APpT1U91/WpuXaxEqjAI+99adtw2fvc+tPEfJ70/bkjOQelIoh2/NgHPOadtJXv+VSbDuIxgZ7U7ovTmpAjWPpk4FG3Azjk8ZzUipzk+vpSqntxRcaItoAPYfSjad3fHWpjHnPHHXrSeX8oz8tBViIqM9MmjaD94ZqVY+ccAelJsP8AD070XERldpGRgAUzb14wCKnZc8gflSMgxgnA7mk2OxAYxkD8TzxRtG7rx2qYxnaMdPpzSbcYGQFxzTuOxXK7cjGec03virAj+U4HNN2c+5/zmgkgZeeBj8aj6EZ4z61ZKj+Lt/Ombc446etAWICo69umRTWXbxjNTlQM44xTNu5uKCSs6FgAaaAq45yastGd2TUe0s/H4U9hkDJ8vHWo9ucHH6VYkUKvIGc+tMOMZA9qYiuw3dOOKbtO4YHPrU7L84546e9RsDgFeadyGiJ14/HmoGXHGMn1q02Oh60x1+bPemiSrJ7cDPPvTWXcvAHrxVgg/wARqNo+cdqYuhVkXk1HIuOmOlW2x2H4momTJ7D1wKaIKu3kDbzTGXk56/zqwVAY85NROpCnPP07VQEDLn8OtMdCOAc5/Wpm6jpjt71Gy7e/0FUTbuQbS5GTgmk53AdTUxUbT6VE6huo47kUE8pHtHJzjimFfftUzd+fpUbKemMdKCLELYwPypjDnjnFWGUhegqNl+ue3FUgsQ7HbngUVKB6nn6UUxcqPPlUtjOfWnbeeT70qrtwwye1SKvBPfNd9rnn3E2E4OMHHOaXDcdl64pyr0yDnqacqhjnOKnqA0LjjI29PSnRqMgYxjvTvLB6/wA6cvDfdOKooOeR6dKXaWxz+fWlXbwTwKk27up/KpuCEWPcACOaFXqRyKeq9cDnpzTtu4f40h6iCMrj1+tSRrxnFKuFAI707b8pOPypDAR9eePWlCdSRz9KcFxn+L2p6ocDJ70AN25xjvUnlgknOfQ9KUDvx7A09f0zxQA0L6inqvTFO5zyOMU9VBBHTniixSGeXuwcDPvT1yuM9c05VGePzxTlUjHt7UEjcFe+fTPenrkckY7ClVVbrxz2qTGGx0oHqtBMNkseD2pfLzjvT1UdT2p4X5fx71N2NEccZ/GnqNpBPr2p4xnkU/bggEADrTLG4LdT1p3TnGe2RT417evrT/L3duPagBixjsMipNo2njB7Uu0gHrn8qeq7lA6n60mMaFxg9qftPc8daVc7s9hT1XcMdPpSBJiMo2kAe2ads/KnLH049+afs7cbqQ0Iq8naeKTaOfTGKkTPTHHfinxqR+NIYyNPlp0YHf5ec1IqbTwOe9PVVGDkn/GkMRV7j5jj0pQOOOR60/b1PHWlVTz1I7+1QWkIFfB7ep71Iq7scc5pyqMnPX1qTyzkDr9MUhjVA5GDj/PNPVSqjA6jBxT/ACyc4GaVFAAzSZXQRYhzwB+NPC479qcMjB6d6cq7mNSNDPu5IPWpI1H507YF747dKeq/jS6Fke0sccjjrTxGdvJ5qTZ8wweaVY/mBP60MaEC4U8U5I92RjmpY1Y5yOPcUqpjHHeo6lKwKvU4B5qRY/X0xg0pXJwKeqdDn6UiiNF29R7CpNvTGOnQUqqzKAT9KcuSeBgdhUN2HbUZtZgee2KcE7nqKkWMFecDvTlQewHekXtoRbd3OMc09Yjzn8af5ZXkelKvrnilqNIYq7hzz2+lOVdre3uKkVSuRxQM8Dr1pXLGlQxx60m3v+eKn255Hak24yAc0rjSIlXapGPm9qUR7s45qRlKqMc809YxjuRnHWlcZX2cDvilapvL/PNIF+YkjPH4UhkartXK9BSN39O/FS7fUfl0pVXPX6mi4EG3t09KQ+oyPapyrcdTTdvTHPrSbCxHtLdOmaZt5A7AZ4FSshwM/htoYHIAxTAhZAclRg/zpu3AwfvCpioDdeaaoxnjOKCbakJXOT09c1Gy5GcAgfrVhgOPfrUbDv0ouOxAyDBB6Uxhuxuqz5e0nmmbd3vjnmmhWK20DkDNIy8HqR3qVl7Ak+1NZeR/n8qZNmVypY59Kay5XGe9TMpK4P6U3y88/hT6CsVnzux3prL8oGCTU5UbunPemSR56nnvzTEVmU4x09qbgcEnNTnp9ajZOp4HHSnez1JsQEFs5phXb64qdsbRxTWA45qiWVSMA8Hp0pjLwSAamZepX0ppXr8v40ySHb9DULrhc449zVggdeTzTXUhQc49aL2EVGUEjJ+Udqj25bGPpVpo9uflwKiZerf5FPchlYqD15NNKYXC8CrDR/LmoWU7ffrgUIViBl29R2701lH4exqw0ft74qJgAQR0q+hNiJkwOBnimH5s7Rn3qdsbuAfeotuMY6elNCtYh2kYGM8UVLkrwG2+xopiPPlyMk88d6co4y3y80L83BHt6VIny8Z9/avQPLADb3p20HOBzihe/f2qQDP+yPpmgaY1V4zxwMZp4X5s4FN27sEc81Jt+XmpKEA696fjCjA/Glj6Y7e1P524wMUWGNRfm9RUyqRxnv3pqr1xUir0OOfWkMVVH0bpSqvOO1C/N24HYU/gDHPvQGwqqMAf1pyIWyO2KP4cnp0p4+8D2zRcYbemeP604KAwIHbFKMFvbtmnAep59BQAm3d7e3WpFB2ggYPQUbC2Bk5HtT0UHA7UDE2/Qc1Kq4z6Z9KN3XPP09aco+bn730pAhoXbnPAPtUhU7eDge9LsHUcntT9uAP1NLqP1BY/mx3604R7m/x70uwbs4OegqRfvdMdqRSGbAeMYFPRDzmnBfXmnqoGDjg8c07jGbcfn3qTaE+6cj+tLwCTj6jrTwoPPUcYA4qQCPHPanbe4GDTlAzwcfhTgPlwOaSAbs6jGfU09RhcdPenKBt6YPtTgm3jqD70NlrUaFK4ANSKAWP+FLjpu4PWnBe4B9u1Axm0gEdOe5qVU3cDt605YxtxgU+Nfmx14qbgIo6dz6Uqx9BjBp+0KQCTT1XpycCoKGoh2nnJ9qf5f8X404LjGM57halXnA/HpSuUM2ktkcE05F/SnbQRgCpCoOP0xSAaBuIPtT1z90DPrTlUYPJ9xSiMn8s0i0IcH7owe5pyoPXJxTwvy5x8wp2OBx7HAqTRDNvBx+NSqvftinbDx696f5e3vg+maB2uNVe3c96kVSuSTn3pQuOuRxUqgbcYP1qW9CrDdgp6gcEjOKcY8d+KcAei9fapGkI3zdTgYoxjr09qcvzf7x4qRYzu9R6VNykMUdOO1O2hjjHPrin7eozSlSpx044pFajFT0/GnbT06/zp6r6DH4U/YOe340mUkR7McjIFO8s7e3SnopUnnNO+92461PMVYaq/dA4pyoNx7U/YNvI4HTFHfrg+tSXYZswM9vrS7RjgYOetSKvzAYGPenbW3e2OcUDICuTu69ulO2Hv3qbb78Uh/r3pXGRlcNkn/wCtSKpweOT3qXbk+xpqr0OfbilcViLZ1yc885p20BiD6VKcngflSFSccdutAyP7uDnjtSFe4XB9ak59vSk2tt+9z34oEiExjj+dNbrx2qdlzyR7ZpGzyxxSuUQsvtk98VGVPPrU5B3AjIphUZyeDimhEZX5ck8Z61GwzU5XGAR8vamMvTGOfanckg2luSc8d6Y2FH90+measFdq/wCFR7d3OPz7UDICp2kgc/WmP04H0qy2OvJWoWUr370XEQFPwpmOvGB6YqzIvf15qNgGAOMelO5BW53ZUYHpTGX5u2anZflPOMHPTmmHDZON31FO4miu0a49PfrUbL0z/iKseoxxnqaY6f40dSSsVC8jt2ph+UAdjVnnjPBqPbjg4NWtySvt6g9O1MYZ4PT6VMy7c9veo9wJ/wA5o3JsQSKFYn86Zt9R8vUVYbtgd+1RSDd1NVckiJOMkZHfNRbR65FTspwSOTUJX1pryEQngEdR0FRsuMDv61YbO0+3H/16Yy7hu/KmIrMnY9aj5JxxViRQ2Rn5sVGUyvTHHWrTJINvcHJpm3b1HX9Km42kjgnsKYUCnigloZj2oprNuOd35iigVjhFx90cD3oXGT3xSKRjt7kU8Y7A49K9I8oFTnpz0NOC5xjj1oxjHPWlxu7AcUg9BQ24AZ4FSAcL3HvTVXopOPTBqVcAYPIBpDQbT6cU5Rj64z9KNvTsKftG7INUyrAF3dQPwp6c4B6UDheM5z6U9Rw2OOakAA5zmpFAYE4Gf1pO3vT1ADcjBxQUCqOQcn61JHndljzSLk9vm60/b2IwfzoAVQFY9W/pT1XCnHT25pMe+T605F2sQQQKQD1U8EcD39KBzxj8M044PTnJ9acqliB19xRew9xIxt7Z96l2Dbnr+NIFPA3U9eMbQAKRS8gVTggcZpyqD1B9KeMs2eh65z1p33vc9BTGhFXb0+9Ttu5shsU7buwMU/G0Y/HiouMVR8oI6ClRTzk4HbFLtzk84p/fPPrigBFXPBOKeq9QOnril2jbyOe1PVSrA5/KpGhu07eOacsZ7cHHSnLndmnYGeTj1oKDae9OC7eSfbOKVeOSOPan7fu5JB+tLYXW4gxtG3n1Jp655OcLRg8cdqlVeuQTQUIi9CSM5p+zd0IzSBduMipguMccVAIRQFzTlU8+/c0iqOcipNvr07UmzRAqk9xx70/y9vH5EU4L6fjTwvAOAR1pMdhApwB09KcPugjr7ij2xT1UcDPHQ+lSUo6DVXOD+NSL7H60qrtz2PpUo9QCaTLXYj2ZPPH86k2eg4x36UqLu9fx609VGcHk570MdrCrGeOx/Spdg3DuP1pFU8/NkfrUhXoT6VG5Qix7m5p6x7eV5A605V3L0wPrSqu3jvU3LtoJtIPX680qr1z1FLg456DtTtu5R1IqSkKFGfQ+1OVdzHBOPrQoPBPI6YqRQc4UYx0qdC9RiqWPHIp4XGOD6Z705VxnnJPpTvLKjOMn3pXGlcTG7AWnBQoBPT1p4UdcAcUoj+YE8/pU3LsIVGDS4JxgZ564p23IJB96Xb8wOePYUh6jcBvc/Tijb2xinquOc5HWl28HHPvQOwixn8PzoMeAeeafg8KOPpQq7Qc881NyrEe3LE4yfrTto28DBp+335o28AjBBoYEZ+8PyFG3JIBzUm3joMdiBQoB4PB9akLEZX/GkI+UA8EdhzUm0dTnrSmMrk5/Ggoh/hAP6UbT7fXNO4J559MUbd3IGB6UwsRkAn6c00/NmpPw5oZTn2NIRAq7R1wc96DhTyOD3NSMPm4HPXpTdpLEYx70XAiZe+cZ74pjd9vX6dKmPGOMj1NMbKjpkEGmK1yHb13Cmsu/nBGam4K9Md801vm56euKrcdiFgRnHSo354HNTspbHr1xmomAX+VIkhY49zTWA47AdBU7Rls547ioGUNnJwaZJEyL9etMbO48444qZuFBzzjioyBuBz9cUxFds+nBpjruUVYkHzdMHr0qFlDDO72xVEELfeBH0NRlTzg1Nt9eeaY2G46n3p8wtyCTJ456VGyn3yO2anbO3p7VG3cc/hRcT7WIWbnjgGmMBtODjn0qRume3pTGxxxVGbQw5wP8KYY+hqRgOnQVHyWb+76U/QRC3TGffimMo6Y+lTcspJ61Ey9D1wOvWqJepEyt1AGO9R7fl4+X61OVwRxjNRlOtO5JXbHUjJ71GU2/41O2WUll47etMIG3rz+lVcRAV5PH6UU9t+eOn0opkWZ58o+bp06U4c9c+lC5Cn/DpS7vlz29RXoHlCjjjGMDrmngfN6U1ueR1xT1XKn1PvQMUEcYNSDAyQOo6ikRR0NKuTgHgdBQFx6jdgdN3WnAYJHQD16Ucep9+1PXHBwDSKDbu6k/h0NSjPpTFB9KkUE9P1oAAo75x161MuewwPemd+Ov04p5O7v+FA9xw+b0zmnLz2oVd2M4xT/L4z39aB7CjAYY9O3SnqAVwBzTVXy+p6+lS/LxzkUtRgq/N71KO3GOe1NXnjFPKngKfxNIY7bjHHHSnL83UbR70DjIXJp+BjqOOOKVwFGf93HHApyr82ewpeS3NPA3HI4+tK5QD5upOAO9OXHQ8jFCqN2M5I9+tOTj+H6UhhncQM/kakUdM+uKMFlyRk9OKUKMdMmmA5cLwOTTu/HT2pVww9OKX5W6j6elIpbAq9Cfumn47nrjAGKExtIxzin7RtAzzUtjFCndk9M0oB4LcnqKdHjtnHvTjnA9KS8xht24wOc4qUKTwOD7UgUhcD9aeqk46VIBtxjj86l2/LzTVXbkgcntUq8Ng9cUFoRen3d1PUY7+1CoNucYFPCjB7n1qblBu+bHQ05V7/jR8v0PrT4hwSPxpX7FoRc9j9Kk4HYn1NAXnhsfhTwvzDtz3pD1BfmOcZPTmnheg6HpQU3N7VMke08dcVLZaE2ZwMkHvxT+Gbgc0u35RxznnNPUDIH86lsoRY8NyA3rTl6HH505VwSOwPY0oA9MUmyhVTseWx06UqrjHGfajbwSeQak+mSfapLGquck8VLyuM/ypY14Bxz6ClTuSGz61JY3bub7ox39qkYELxwM8U+NcrThk9B8tRe47XExuzxg9xSqobP86cUB46g0u0D1JxzQVbsJz2PHvx0pw7nrSqnT5vpT2UAehpFDQvrxTyvQCgZ707GSM8DFTcaEVTtxmkKjp1+hqTaTj0pdvGQBii5Q3adwPI9KGHfOKcF9KPQE4PpUlDPlYDtj1pM/KAORT+Wz3pAegH4igLB+GT6035Wzkc9qkYAZ9PrTSASeMVLKsM2/LijBX37HFSKpJ9MGk2noen6UDGbexFNYdcH39Kf75zj1pv6joarzFYauec4JpmBuHPFSNntxzjFJ9Bz0pAMGcdcE0z73AHSpNu360w8+x9aLi5Ru3B684xTf4jk8U7k5wcnpSBdwIPU0JisRbeoHJprAdRz261IVO044FN+8AM4pu/QnUh27SSeB1z1pnc9s1K+T35/QVGR6nFAb7kbKdxJHNRk+/P4c1NjjI/Soi3XPOeRTuRYhkxnGMj0xTdnvtB71MVLdeD/SonHBPI9PemOxCy8Dnt3qNlB5P44qdsFvm471GygAgZPfPpVXIIWTdwPu1Ey5xhRkH1qZuV6YFRt94k9/amIgPPr1pmCOKlZTzzg1G3Y9/egjqQ/wkg/nTHGwg/oKl2nOTUci7lznIHeqDqRc8gHHvTGX14+lSN94Ywppu1txBOKZDiRtu7D8KY/3cn+VSMRjk9Ki27f/AK9O5FhjKenWouTnI/SpW4IJ/GmHtVpk2IpFx9MUzceOMjHapeFPQgHrxTG+6cDB7UXAjKehJop/+elFPmFY83wBjLE0/jpjk+nrTeOcdKfxuGTnsa9Q8VDh8q8nBpyLnaMgD/apoyRnHFPXb9DSKHKPm9fapFULjjn2pq88A5HtT1YBgDz9aAHLjdxjNP7ZP6U0EnBpVU4z0oBIkxtWnKCF9aF9ADyKfj5vegq/QcQTxT8cLjP1pn+1n2qSPvxnuKVxjvu8Yz+FPH3uOfahVwpY9e1ORc57mkA/blueB7VIq+3HvTFznGR1qTp6+lTqUCj6n61Ng4Bx+HWmqpC9aeq9+vPpSAVeOOS3enqBx/kUittYZ/lUm4Yzj2oBagvUEfrUnueaRc+hYD1NOC4Xtz1pFDl+Zj0Pfp0py44/M0ijk989hTxyeOKTZQqt1x6U5l/PrQM+xp+3dn5sD0FK+o+oq5PJ20/aQeopoUcgnmnDjPOfrRpcY4egGM/zp4U9SOfSkVdw64OeRUqjI6Y46VIxNg25xz1PPepMEDpTVBB5GT3NSqu4E/1o2KsC5H9akjyDgcD3pVUceo7U7AwOOvQAVLYCIoC4+82akXIyuPpSLz/nmnqoGP6VJQewIOeKlXO3B4+lMVe1KqlT05pGiHn06inAYbjk0Iu7qOc1Iq+2T+lK9igXHJxjBwRUka7sgj6d6VVJf2qQLyFU4NQ5DBVIB46eop3J4HTqfSl/iz+ZzT0+ZuPu/SlctIApbBzgU7AyTwTjmhc8nIApysG9Txyc0ihQCR0HqacvzdOeeaGXgDjPenqPunGR9aksXaMf7PenKvGB6ULgYAHP0p4+bB61NykGNy+/tTlXnPTijbxz0qRFAXk80mzQFX2B/CpEXbjmmJ71JzxjqfWp6DSEK7eOppyD1HNKud3HHFP25+brUlbCKRuJ4HOPmpxHA7n1pRnkgUi/LipGKvzcYPHrT9vyn+dG4seenak2Fh14/u0XKtqJuGSMNxS7eh6HtTvu9D160Lx9O1K5dhNowwPUHoO9Lt6enUetKF5OOD60vrj6/Wh7h6jTnNJgfdPTH51I3r+WKNvy88GpuUM2+wzQqgZxyRR91x3J7Uu3a3Wi9gsM2dCOD05o2npgAfSnt93Ipu3jtjp1pLzGR7QRSkBv/wBdOPyjrx6UjAcmjm0CxHtIwfTmhl+Yc805o/fOetNb06H+dIOXQjK7GwxJPWmtjvx6Y9cVIy9jTeMnA96oTGHpkZ9ajKnOc5HepG3fQetM6d+aLisMYchiOPSmtjg8+9Of68+1NI446cZ/xouxWGOoPU/hTHUfNSuD2555prHcQ2ck9aom3YjZTkgDimNwvT8BUr43DHTNMIHOeM9KCfMiPfoPrUcnyqOPfipGxjIPXk0xj/d4A71QiP72R7+lRPnb15qUjOe9RthQG9qCCJsZ96jcE9ODUzLznuKiJ6+p6VQrELZ578VH97jPPXpUr84yPfAqNvmz7GmKxEwPTjAqOQc4BwKkbjsAB/nNMbBIwPzpoi3UhKlcgcmozkHJPA/Opjg54ORxiomGOM8UxNDGXDZBqNuFPB4qQseDwCaj5y3QA00TYYSGOOvvmo+BnIz6VI2MAr+Z6U1stjt6Yp3FYYwLY59wBzUYI3YNSZJ4Iw1Qn17VSJsBYr0GR9KKQgE9j+FFSB5wrHcMDB71Kre3T0NRq25jkHmnrjJya9g8MkUHkjP4GlXOcck96avzZC9KeuMk85HbHWgQ+P5cnt61JjbgnP51Gp3YwP1qTnpgfXNSWO/hH5Y9ak/Q/nTP1P6U8YPJ9OcU7gPUY7ZqRR04xTQw3c4zUij5QentS3AXbhRkZzxinr9KYrAgcFc/hU3C4Ht61DKHbTx1wKcFBwM80i53ggU8DdkYz+FGwx6rt5I49alChgO4AqJQVyenapUwM7TSAeuec96f3Ax1pqqRtPfvTlycc475oGPHzfL3Wnr973x3qNeWHfJyc1IvXrn8KQ0PXGCPxz1pyqBnAx/SmoRwNtPUjkE9KXUsVRuboTUu3aODz6A1GcbfT09qftAXmkMeq7epNPVsH+7mmj5QM/UVJtyccn8aVxi46jGSBT15GcY7UiDG7nI6U5VHbt15oGP6k5PtjrTlG36Hijnb2z/Wnrj0z+FIpCqu5sAdOtSKvp601fTFSL93pz6VNyxVHy46f7VP25Geo9hTedvPrT1G3HbPP/1qQDuOPXpmnhflHcUzb2P41IvzKBnnpU3HYcud3AwPrT8/LycmmKAP4sipApLYHQUixVQjkeueRUyqO+B/OmbT0NSBfbpSZY9sbR2p64wByCe/tTVHTinj5t2AeOOlRdDFYHmnjoMH2FIF9fSnABueBj3pFjjkL79RinKvBI64xx3oXP49Kf3welRcoAu3npx609QH49RTUb5mB7dqk2lStTcsUZ4/LFPVWLEYH50bdpBzmlK+ooLSHpxk47U//wAePTpTV+5+n1qTO1eBzUlJCLn6AdafjA4H1pFA7dP51Iq5PYfjU3KEC84HanhQpGOvWgLz1yT707bxg80rlCAfMTkU7G73pN2c+nrSqCCcNnvUt2LsOGex3HP5UikcDHfNOC7TzzTdvQ9ulJspIXaM9c+tO6N0o42+x9KFyB1/PmpGB9qMfKD/AFpSpPAFG4en60rlWEUHJOMH2pfQt8vHFLuO4+v86acluQMY54oAM7ep78ik4H3eh70/b3B57/4Ui+v5Gi5RGuVUnH40o+bk8U855zg4GPrTdvbApXAa46AZ6Z6007eQBgVIeOAcGo29RjPei4hOu4du9MZdowe3PtUmKRuSQeTnn0pXAjYFm5546imbQpycgdMU/rkZ/LtTMDpg5pisN/hwM1GzbWyee1SbTgjHQfjTTnkj8qdxW6EbANkj+WKj7DBOfQ1Kw6YwRUZ+7149KYNDGXHPemNjOfzp7ZPYiom44PTvmmIY2d2cY9qb/ePI5p/O7OSRj0qIv6dadyLdBsmNvI3L2pjD6U49Bnn1qNuhOODxQK1hpYc/Nj2qJl247/SpG5yOnFRjPqD2qiSMt7d6jZhk45B96l/HOKiZt3APsavoIiZQO+aYeW5/+vUjELxjK+lRnO045zS6EkT4ZuOP5Ux+Tz6+lSP8vH4GmNjHvVJ6Esg2lTx1pjZC/wD1qmI6d/6VFzhgB+lFySJl7nv6UznkelSN0z/+uo2yf4h6jvmqJI3+6CO1M+6P5Gn85PJUe9RMT0/WglifxeuOtMb5jj7vYUElsZHX2pu7hgMntVC3FVhjBxxx3opqsMcnmigk85BBYDORnHHenj5evIzjFMT5eSf5U9ckHB6V7J4RJna2NvbilUjkZ+b34FRljg44HapI8E5JqWOw8DBBPXtipV+90piYxux3zT16Ann09KQx3r83PvUi4jz3HrTFyM84qRcNzjkdfei4EiqMg4p6HLKOhAqP+EYxnsKl+7g9Aakod1+uetSH7uT83fpTIxt4+7nvUiMCODikMcpA68dh61KPm4PGeKjUjGDzzxUi5GD2xQCHBdv9TUqZ28dajXO4huRUuQP8aTKQq9RgmpF7A+tMHXnGOlPVivGOPc0hj1G3rz707gsD2zTAd7ZHQ09dvpSGSfVeKkXbgDPucUzPBxz6070HUYoLJONuMDrTxjdj+maiVT3NShR6c1NwsPU9hwelPj+Vvr60xcE8A/jT2A+Xj24pFD1zz2FPX1HI6+lNjI5IIwMD6VLHhscikId1YZxn1qTBZfpUYX5fp2qRegBxjrSNNhwUYLMCQOnNScDgnB61GoXAH3sjNScsowR1xSuMe3bn9Kfy7L6VGPmYHknpTwu1xjIzSKHAE+3tipYwNxJ6+1N4bGeG6U4KT/Kk2Uhyg7uOe9SqOvt1pq5ZaeBz65OealvQpIerd8daePVjxTTjp057U9FCrkjrUloeMqP7ueBTlHTAJGc01crlhk0uS3X6VPMOxJz/AEpUyoHFHoMdKdgEYHFTc0SHIDwakVio4PJ71HzjrUq5VSCfpSKsH8XrzzUij1poUHAHpn61Lzg+3cCpKsOXC/UdDSjOCDzxTdvbgd+lSLwDn+KpLEUDkdO9Squ5iRnBpv3m4PuKepZTz3o16FIcPl6Lx605VJpB26j3p4xg8EVA0IvBxzt6U/qoANMVucAcUo9u9Js0XYcMhuTmlxz0/WjHUYxjrTlI+71qGWHO7lsL1pcHGfyowFHI47U45b5QcilcewbgMA0Llcce9Lkt0OOKXbwCee31pFCYZs/ypT8uDtwO4oPc457DNAbPb9aCgx6delG4Dpn8aN304/WjadxK81I7CbePTmhdrMTzj0p3PNJkdM8/WkITbycevPFM3HjuBz6daVlPP50ZLcjp0FA0M+U8D1o+XdzyPSncqTg03jaSRnvTGxp4yM59KY2RkZx/u0/aMdc0w4zlePpTFYayghfSmyE4GDxTiT1UcZowF4xnilcTIgDx196jYbVbjJzxUjYwM/e/lTGzk89Bn607k2GBSM84NR7flOOmKk5xgdO9MK/dyc0wI2zuxTW+8ec9vanN19PcUzA+YZz2zmlcRG3oO9RMw71IT6dOnNMYYxgEj1q7ksaeMYPHeoevIPFPcjnHXNRs3tjnn3ouTYCc4HQ1DJg4Gcc4p7LubOfl9KiZsZXv1qiXEaxPTGcUxl65/CnOemRj0FM3AdeD6U7kkZbg54zxkc1G3yt1xxn61I3GBzg1EzDPBAx2NVfoJjJGz/sio3284FSHPTv9KYWw1BJGw9B74qPJDHsvp1p7E/MeoPNRsF4xnp+VVoTYibnv+NRt83A4qVvmHtULfNzTJsMbJPrx6UxsKCvRvankjAzkH0pn3s8cD86ZI1u5zntion4x9akzzk+tRM2TkcHNPcVhy478UVF6cCildEcp51u3YwcjrUqsePzqJDuAxx9KkXCt+mK9nmPC9SRi3GOgPFSKPlAIzx1zUS553dakDbowQc/hilqPyJF+6KerenPtUS5ABzhfyqZWJHy9D7UMdh+R0zjPbHSpMdcnr0qNcHIH8qcvPIPNSMlj7g81Kv3BgfnUKnHK8Y61IrN6ZHrijfYCQNjnr9KepOc9D7VEnoefQipV7YwPXNFyiVS20KRk0/ccHP8AOo1AX/4qnc7STjrx6UholTG78eacpAOM5PQYqFXOemcd8VKMKQTz71Nxkqt1H8+1PWQ8c5A9KjUkc54p6HDYAzxSKViVcdacMBsDkfWo0IZvQ5qQYXdgAHPNA0PXnoOelTLnbk/Nioh6EYFSLxnAwPrSuMcvOTjtUoXvnIaoo8Y561JgPwCfpU7sZKMcZ49utSDtgcVGuRgN1HepFbbjNBQ9ANxPapBjnHeo/Qk496fzgqeBUgSqp+Ud/c04Y79uDUY+8COoFP3Mqk449qRaHxts6VIuep4H86jTO0DBI9TT0XoO46DNIaRIpx06U/PzZ/Ko8k1Iv3yTzSZRJkEZx83WpIcMMAYFRLj6ZNSrg7cHpUXLRJ90Hj8acp4Oe4HemKS2QRjNOU4x6dMYpNlEi4XtkVIuORUa/KxBz14NSLkk7en0qGxjl6Hp+dPDDHT61ErnAG3nvTx82QOaC0iVenJ4PTFPH3eM+9Rrj+9+FSLnj9Kg0HhcYPPrUg6HqPpUa/Of/rVIg3KRSuy15DxwBjJIHrUm75cEE896jHzIOOfan7T1/OkUh6YweM/rT1+7njApE+8cdPpSr16YqRq9x647fy4FS5zyOT61Cew7gU/cNoyam9jREn3c5H0OaVSGBAPPpTQSyjoRRu9sfSoKSHBivIGaeuSCwOPxpgYY4AJHbtTlYdMc/SlctDlPXsf504kqAcY9R3qPO1skVJznBqRoAx5A4p3+13xTV+bqcj6U7jbn05oKsmKrDk5HFOYFf8OtM+7x0zzTlzj270iuUPQ5wfQ0pHXnHPGKT0PU5/ClwVX36cHFSUJzux6inccHPApuflGO5pc8kMKBgq7evB9KQ53bRxSMxYmk+9g9PWgBxb5emPrTC3GM9+MDpTi5OBUe4dO+e9K4hzL/APqpnT37U7ow9hzxTchunShMYhzt54PWmMPlBoY7sgnn2pCcnOMii4bjd2MgdKQnccDnvQzdsdKYeeQKLhYQ55x+dI/zcd/rRjqMgU1j37+vSi4iPmmnC9KVmxyDj+VRt7ntirv1J6jTnnByBUbN82ABkin5HPOKaeBkcfhTJ6kbEZIPWo2bIPc/ypzMA3oPWo2+9z1pp3FYYxLdeg9qZITz3OKfIeDxn8KiyR2p3ExCBtAPU+nSofun6HtUjdsnjPSo3O1eOOaEybdxGY+nJ96jwGOaRvb8abkYBB79aYugj43HgA1EzE05uQcn5v8A69MbHPPFUQM8z5icDPqajfCtjt1pznoc4pkjblBxj0qrk2GNx0HNRuwzkk5705s7uPSoy3oe3emJoT+H0PXOahLDbnn3qRsFeOPWmemOg4ye9AiJ3wDnntxTSQrYPy/pStg5xyelRnv61RFhHIHPbuajYr67QOlLu6YAqNuvJyaaZLWo7zNvGQKKhZuec0UXYrHn6r8p4Jp26ot244J5709QOOfavY9TwbdWSpkMDnjOTxT92B04pijbkg8inrkYAAOaVwJFxjnmpF+VTg81F91gDjNPB28UDsS/xDsf51IrDk5OKg3ZX+fFSKwVeOmfzoGTBuM9+lOXB475/KmdyOMetPDHgdT1qdUMlQ+h+tPHzLjs3tUKtnplSPWnrweOOKV7DJl9M4IqRWBADDk9ag+boecdalVvU8frRuND4/UEr71Kfm4xyRyaiBAUYHBNP3evSkMlX369fpUikkZxz7VHkdhg+tP3bunNFyl5EsbFiTj/AOvT1PzfpTV+7gYxT1yAQccHPSpuPUlHYE5IqRGzwAM1CrbTyRuqQHdwPxqQJOuPyqRcjvgZ6VCoywH51MuO4/OkBJ/FxwKkx0AOffvUIG3PcDpzTlY/wjNIpJk4bb0HFPRifce9QBg2TmnoT1xkdMmgvyJhnt09KeoyeKjXg4A570768fSpuUibd82M/jTlw3HTuTio1b5Rnjj8qeMrwcVJRNHlu/WnqPm7io1YFcDr1p6+3alcaVyZMc5bOKfxjI4qJVzg9f8A69SKxYYz9MVJaH9R1z/+qnr93IGTUakk9KkVhuG3p3NK5Vr6EvRQelPVsHqMdqh3fw+/HvTxxkdWxUlWJFbrT8ccH2qIBuc9PpUq445+hHNIokA7Y7VIrZx198VFnOOc+mOtO2/LuAz9anc0JgM5zzT1OD1wveo+NvFOU/kepqOhS8iUMF5Hy89aeuRyKjUAHqfXpT+SeccUn5Fkv8Qwe9OXAJFR9B0yM+tP3HP+zUlIkDBu+e1Ln5sdaiXCngYp+ePU47VJaWuo8HbnNPXHAPOaYvzdufWnAlscgYqdSx6/L1p24rgdPwqNeO/FPXO3PfPWlcpLUejDbzTo8M3XBPpUe7r36/Snq3dumR0qWXbqO3EZ7DPSlV8EE9z1pN2e2e/NIRk8dueaLoofwwPOD1oyckZ5pF9TwOtLyy5HPtUtjF/i56AdRQCOe4+tJx156YpFUdufwpXGK3bA7U7djrTc7c89O1JxwT9cUXCw5mO48A03uMjn60nIznkU3cPvD2FA7Dxlc8d/Wm5+vX8qRmIH8qbvJPTn2pBYXIP86Q/Njt70mMH6+1IzAj04xikOwHCZXp7EUwnrjpRu3YI7Hmml+/U0AN6YPFNyeg4HWlaQdO9NONpAOPY0yRJDu46Z6ZpjHg4IIFHmbc+lMbOMYySaEIRsspAGAevPNRs21h7ilZ9zA5x603dwB7Gq1sDEfOemajOccmlb5c84/lTWfHOCCeaLskY7YB4qJvmA9R2p7YZcdWzUbN8vTP09KpeQrDGbGQOKjZhzzg095Mj7vFRM2RkAnNPYmzExu2kc4561GXDcdqVm6k8VD0znn05pk2Bu/Uk/pUZO3IJz65pWbb90dulRs3HGOlMlqwkmM+rHtUbcDr060SMB6gnpio5WzjPTvzVEvUVhhs/ez0FRO23GeuaGY5PPWmbtxPp3Jpk20EZtvXt6VE3HTnnOaex+Ud6idizcHr7Uw6CMR371G2eCOPQUuctxytRyMOtNEgTuwM/kKZuBHU4zzRuLNwaYx/GqJELEGo2+Vh2P1pxf35z0NRs3JyeetBNtRrNzyCfxoppw3OfzoqhnnqgNg/lnrUir15FQqwXgnPOOTT1xtB7V69z54l3EbiB3/On5PH9KhznhSRT1x+PHamMmVtuMkelP3dRUPbAHHWnxyHcfzqB2J0bjAHNL93H61D8xHXj1qVSM+px3oGSq3ykfdqVWyMkdec5qurjkHipVbC89frQxk0f1JNSLjcOuKgjZixzx2qQMWBPr781IdSxuyfQU5XJXIHHvVdWOBknjpUy5K5P1oK8iVccDqcZqZc9etQKQ3J4OOgqRMY45GMkE96QbEy+h61MuOtV0ZWyM8nuKlU596nUZJu6Y55qRWwOahU7cVIrHg4yOlA7Ey4696k3bRnHHfFQr8uTj5qduPB96VxrcnViyjaMcU5T2HP1qMDoc5Henqw49PcVNyrEwY5J4B9af752+9QKxJPGD696lD8Dcfm/z3pFJEq/MoxzxTlbkYH9KiVjhuPwxT19T0P6UrlWRMrfMOafuDAjA4qEfex2609WI5xx2qRky88duoqVW96iXcx5/CnjoP1pXGtCdeFA6etSbudtV9w+op+4ZwDipKRY3enT1xT1kABGePWocjdjP0qQHAUH+VSXboTD3OD0zTg3QVCjfe/KnFhnpg0ilEkz8w9utTD5jnioF9zz06U/8OnTikWkixH8oycZ96ecgYB69eKhXgA43fXnFPTPTd061JSsSDPUnA/SpF+YcHH9aiA3MCOvepMn5QvP04NS32NCUNwOM4pysckDp71Hlug5A5qTdjvyagof/AHecipPvMMZA7VEudwPQ/WpOGPB96RRJkYPXNP554xjioNwIHZhTlYng9qRpFE6554znoDSgncecfjxUYHYfpT1buRjipuUSj5sEn9KVD142/wBKiDfMc/hT924Y6470i0nYepz1GRT1YtweRUY+boc47+tLuOQc4qWMmyFYH+tO3eg4znNQ7t30NLu+bqKll2JP90k09SVHY1GpGDg89zSK2ehqbj3JN3XnnPTNG/8AI8k0hPXsaQtzzwDSuVYfu9OtJnnmmbiWHGAKTccmi40SrkgjGPSm5PrkU0sfXGDSfeXdn6ilcqw72oyVIB5PrTN23jJz6mjdjr0obAXdjnn2zzTSx9e9NZ8tjGCe1KzDjgH1pXGBwB05PpTdx54/IUhJXPcdabux1PH1p3EKx/AfWjzNvHU1HkHPGPSmswwuCOKVwFLZYhfwppbPcUjOck5x2pjY2gdAOoFArDiw/CmBtpyf/wBVIXGST0pjPnPOc9RTFsK7Z3HOO9Qt3bP0pST06H3pj/X+lPYgCd3Uds0x/UkikZueKjZiMkHIprzAVm68DHcVE5HUdM0NhjnPHt2pjE9KpCEkdi2OmOlRMx2+v0pzDdx09KiZsdPm7VV+hI3eeeePemM3f/61Kx3cE/SopG+YZXntTFYa2VzgnA5prZ9OaVjwOw96hZyF6dD60xaAx9OlRs3zEd/elZunQ5PY1EzDkD65xmncnQGPGR9Ki35IGfoKCxxx0qM/3iPrTuSxzNnoT+dRNJxg9emKa7YyD/8AWFM3bgOc8c1RDQ5m644HemblHfP9aTcFyR3qNsbj9aaYAzYJPTPrUbSBuh784ok+UVGSMggZpkjtwxtqNm29KSRsY4x3qMtxnof50xWJF6ZIzmioWZc9x+NFVYdjz4NjvmnNJ+JqDzCcnIzT93TJyTxXrHzhPuK45zzzT1Y9jmoBId5GCB0qRWPPHUdjSLsTKxZSKlXPrgdargnbxkU5ZAevSgLE4Y7zjmpFboCKgDDI/wAipF43YyOOuaB2LK8jHXihdvue/SoVPHXNSKxPX8KQdScNk5zgdzUo+Vsk5I75qBc5BzgdeakXCtjPPWkMnVt2CfyNPUnjGePaoxJubOOo605W2n+8R1qRE6qByOT609TyeeKh3YUYyeaf5mFGR7euKB2uWEIJAOKcH2//AKqhVhuA7n2p6yfLx07j0pFWJ1+UDnJp6t1HOPSoFk69/SpMncTmpY0iwsmOSevfFSAl+d2T0qssnOOBUq45B5NK47EoO0feHXGBTw27Hynb6VXB29cgj35qVTzjoT0pFWLG7awH8hTuvOcjoKgjbnn6ZqRWC9MnmpGkWFb2zk9qcrdic4OagDZGalQ/5xSKJt3fPBp/png1DG2eBjGetPznnB9xQMsbgy4OSexp6sO5571CrLjqemKcrbRnqKkpInVgccds9akQjGc5qBcYH509fl6ce9Sy7E6vwD97tUmQoHpVdWK+/fFSb+wHHcdaVykiZW2n196eAWYDIxnmoUc7sgA/hT1bOSAetIuzJ0yw6c9/SnqcnA4FQhivX8KerZyPWoKiiZSQeRmpM/L14z3qFD15+lO3fLgrmpvctIsbtvKjBNPBOR2qBT2I+lP3Y6YP6VLZoTq27OM+lSKefcdfpUAb5ueB04pVPp19z+tIdmTgjk9PrUm7AqHcAuOopw+bABBH50rlpEqtu5P5U9WG5uM/SoB8zdfyp+4c8kGoLJg20cdetP3buc59KhVskY/Gn529DgDikWiUd92MnvT1b3yD27VDuLdsj3pytjGOO3SouyrdCVWxjJx9TT92D0HrUIcdevHWnhjwCBn0zSHYk+7jPPNLksM9vWo2bauDz/OlzxgcfSluiyYMeuM9+tAYBeBio1bOBketG47sk8Y9KgY/dtJP5ihWHPP5HNMDkEZ/+vSbueOPb1oLsSHp1oDlR97IpgbPOMHFJxyOnPfrSGP8zK/LQrZJBqPoTgHPalB2k8jigBxz1JINN3Y459Kaxz0/WlZgFx1BpDHFyy88elMZh2Bz601vmwRxikZ+CDzx/D2phZjlYlRn6Uxm3EFulIzEMecDr7U0ydRyaLi1F3Z/pTW+VgwPahuo4w3cVE7Yzzk9vSl1AfuHOOvWo2bPINJvG0HOPamk7unb2oANwLDHQ01pNrEUjNjj27VG7bunb2piBj1OMCm7vl4Bprcn1PWmFl57GncVtBxOBn1prMBnNMZumT+HpTHbd17UybA/GOOaYWzkZ+tNkYbvXntTPy464qyQZirDB4FMJC8jAxSMcqGqNmOB25oAG7kN24zUbMOe9DSELz9RUTMecHrQTYGf5T05qFmPHOPXijceoHGajkY5zj2Iq0SO3Y5z0qHjGRz+NDEDIB59TUZbPJpk2FdxtwMn9KiY9ucUE9Dnp+dRMx7gjHtTJFkYcj8KjY9s59M0FsHk5NRM4Gf1xQJjt33h0zUbOPUEjmmMxK9aQyblx271VyQZhuGR9T1prMevT0xTWbk8j25pjN3GB75qrit2CTPA6nrzSMxI6VG3I680jsVwc44wRTFbsODN2fb7UVCyluQT+dFO4ann27kjnPT605cgnj6YqFW3Z7fjT9wIGW49fevYXY+esWFPpzSrIPWoFboDzzxUmTtDAcfWkMsKx6HgU9WIfp171Dz2b73tT1x2PJ5xUoFqT9SDnjuKevy4weahXsc8dwTUkcm7HGAKLlE+4k84xUnmDnHT0FV9wJHOBjNSBxuwfrUgTRtzgNgdcVIuDkDGai6LyKcpC5HQ4oGWFb1/lUqyEKepxxVUSLyM09WxyetILFlZt2DkfSpFztwMHJyc1XViv+1TlyMHOKQ7FhW445qTcQoz0zyfWqwk+bBHIqXeSvXk0mytCwj/AC88buaerfgD71XVh1x26CnqSqjIz+tICwuMZ6+9PRu5OBUCtuzk4FSK3ynqR1IpMvlLIY856HoKcvzY6f4VAGxgg1Ip46YJqRlgN8v9KerZ6nmq8bHOen9akVhwP4u2DSGtywMDA5P1NOVsEjqfaolbcBjP0p4k+bJP40irEyyHgnGBxUm8ryO9QK+7jrmpFI+hJ9TSLROGXJOc89akHH/6qrB93zHoeQKkViw4OBnPNICx5h4PcU8tuzls+1VlbJ55p8bZ6D2FTcpFhWHQnkU9W2rg4z6iqyuFbnANSq2PrS6llhWK8YpyyDeTjgVCrblNSKSQM81JWpOpwOx9KesmD+FQLznj6U4NnA61JaLKt3PAqRXP1xVf7wz3H6U/zMcEbu9QWkTht3T8akEnUZ5FQg4AxTg3qASD3pXGiYfKBnuelS5K8jg1BvG71ozuz61JoiyHDY4xxmnKx+Yiq6ybfunjPNPWTse/NIpE6klgc+9PVjjr+tV0PvgU9SVzipb7Fk245ODk9KkDcccjsKgVs8k5PTOaeshUZ6ioKsT792RnJpUYbeuag8wFuOM9KfltwHc0MqxPnjOfrnnNG4YJwD2qFflxgjFODA9uc9M1BROsnzDPNDNjnOeeKh3ZPGV7dKXJA7ZPPWk9ykiwWzz/AA4pN2VIB4qHdntwKUMvBzz3pNljy3OMY+tKM7ueT3qMTAHHZqNw3EZwR3qblJEm7Cnn5qOveo93fv6Um/8ACmhrYnz+IpoO1ePXrUe/oTx60biORx3zUgPZx159OKRmJwvQ9yaiLbVNLknnOPbFAx/J56jPFN3dc8GmFsqMZFN37mBJK+nNK4Dy204603d1JGT7Ux2Ctknk85pjNwT1poNB7yNkc596bu+UbqZu+U88ZqNm7d6d0LYe7HcM8c8UzJ5bP1ApA2M8fhimswYE9qL6EiuVbPGT6Co93YcikMnXFM3jrjPtQMezAj0Peot3zHngdabuC+xpm7Ix0PfFMPIczZz6VEWx1P601mBpjN2P6UyfMfuO78aj3HrnpUYcLjPJ6dKY0np93+VBFhzMN2Dz6EVHJJubrn15pC3U45zmo9xbtgdfSqEK2QCfvY/KmFtw5HT2pu7jHQVFv25wTg1XqA7fzj096jzn5c4zzTdx5xzUe7bn1+tPYgGxyMVGWyvQ4xiiRucdqjZgvfB9DVcyExNx5A4B5HvTN/Yk4HSmFxjplh3FNkbsRx1zVXIFeQjFRFh2PHakZstmmE9OeccCmtA6Cs553dKjZvy6daGfqOuM8VC7DscGgnuKZMenHr3pjtg8UkjYBzwPpxUW7nGTzTuKw/zNxxnj0NNZtzYqNmznIwKj3FeAeP0qkKxMJAezf8BPFFQ+c3oDRTJ5Tz9ZDuzxg+napfMG3Hf0qqmeOwqTcC2B1z371654Fiz0I7L7U/cNuAcelQLyDnn+lKOenXH3qQWLCttAUHjrUgb1IJqBW6ZI9Kekm3jqKC0iyNq4Penq3qO3FVhNu+npUitzjJPrg1NxWRYDHpj5e9PEh4yKrLI349qcsnpxzRcdi2JDyQT709WP4/zqssg+8CetP39M8fSpuFiyrdeM1ImepOMVWCjk5IPfHFSKxY9hgfjQ2NFkt6HB68mpFPy5yBg1VEnzD1zzUu48dqkdidX3cfyqTJbGM8dqrq276e9SqxXIzwKWgyYE5yvcZ61MrDAqurHH92nq27NK5RP/AA8c1MhyAQcf1qrGRuPzcCpEYZyDg9hQMsqwOM/pT1YAmqysOn6d6kzuqQsWlk+XkcdOO9PVjwSfpVVXCt7dqk8zdx36fWpuaJFmOU8cEDvjrT14Py8VAsm1+Dg0/wAzbgnGOtFxlhXBXngVJ93BJzVYNuyQc9qcsnfOCaVxlpZB1HHPFPDbuQMiqqOM8HOfenhh8xJxU3Q7FpWOR83GakU5TgkGqiyg9efSpQ25c1LdjRFgOe/0p4b5h2+lV1b7w6D2qTd90DjB61IywrEDIp6tzg8moFJxjdkdaf5noBx7VNy0WFbA4FSK2W/rVff0yM8U9X/HvipK6FpW68/nS7hgD3xVdG3epPSpBKNvr2pNmhYMnIzxTwwAO3uOtVd2e+B6ZqTIyQP/ANVSOxY8wHIznjt1p+4dKqrJz7L/ABVIG4/xpadS7FjcOlO3enAquGPGDn6inhuQO3apu9i4osA/Lye3Q05cnI6jtUCyZ78/0p/mbfX2qb9CidWA6/r/ACqRWORx+feoGfntnOaVZ+o/Q1F2VYnDluf/ANVPD7sYbFV93y88DOeDShx1zg0iyxu+XHU55p+7nHp2qsGHUDHrS7vQ9aBlhWKd+KXd1yeM1BuHfkZ60CTHB/GpLJz+Ge9APy5zxj1qFm5Bpxbbnjg9u1SxrsTFx24HWgPtzxg4zUJk6Y5pPMPGMGkVqTq3zZzwOlLu9Dk+9QNJz6HHSkLEYJ4BoHYnMmWGCMnrim7ht61ErjnFJuzg9s1IE3mEgAEfjQz9+v0qES/NwcGm+Z8u3I4PSgCVmwc4JprN15JH0qJWzz/OjccEZ7UDH7ty9eB701nx3HHTio/OIX0BpjyAnjjHftSBol3YJxk561GzbTwc896jbO3rTTJ2H3R6c1QiRn7k7T2pm/OMnp2phkDcYwetM3A4/i+tMCQycHJ5qNj0Hr2zUbP6A470jN83GM9qBDnckHPr0qIv2xTZGyRgj2qPd3xyeKq4mPeTJ5/Wo2btk/lTfMAzn1qJm5J7dfpTEPY8cc4PTtUbN68U0uecHNRl/lGOvpQK1h7Md2c4HqKiMv8ACeDTWkDEjpUbN0yd1MT1HbgwJzkdaY0nBxTWYNxgflUXmdM/hVE2F8zPPTpUbN70jN36+2eKjaTcvzdPpTuTa4rOT71EzDt1pCwPPU9aj8w8EdqYrDix4GD+FMZsn1H0pjMOSevrUbSEd81fQmwpYAH8qYzHnPp3pkjB+1RbstknrTTEPdw3GOfU0wsenXtxTN2BnJ25pjn5TxTJY5mGf8KjMh5OOPamMw7DjrTOcfzoAeTxgnHf6VEx9+D3ppYqvHOexpkjbm5H4UxDnYk9WH40Uzft96KVybo4RX6k/wA6VW3cgAD61W8z5uu32p/mbc8c17KPCsWlb3zmnM3cYB9jVXeSevHepEbaDzn0FAcpaDZxzg/nTlzzn17VWU9+vvUqyAf45pXHYnWQhsDn04qVWPG49etVVbccZxUiMB/XIpbDLW7rnJ9KePvemOarqQW44OO1O3Eg55HY5pCt3LKsD1GB0qXdjBP3f0qsrDkHp/OnK3UYyfrQOxaXH3Qc5/iqVW3ECqkblR8vX3qRW+Y/rmpCxZDnqeD3p6t26D17VXVhtPOT2xT/ADNw78dqGXYtLJwOlSAn5h37VUVumO/fpUwfcM55qRWLCsTjOBznrT1YY44HtVUMWbsfXnk1Ir85OBSe5Vi0vbjjpjNSBuo6fjVXfnH86lV/m3HGKV2OxaBwvIwaUSfKBjmq6ycgcVJuO4dMd6QyxuHK9fQ1Ih2seR09Kr+b1OOaVWJPU89fWkMtmQAAkZPucU9ZC/bg1VVgD7dKesnGM8n0HFK5Vi0JNy5Jx2609ZO3T8aqq3Xj8OtPJ3AY70i0izuHHcd6lVjwMZqorbT1HHXipUf5cZ+hqGyrFhXwwHTNSbht4I4/nVZZCCTxUm7rxml6jLAbC54x3p6Ng+1V1Y9c4qRTjA9OKkuxZ8wtzg59KkEmeRz/AEqmJCcgE49DUyyACkNFoSU+JieD161UWQtk+3pSq56g/T3qWXYuhs98EU/f68jPOKrLIRgHNPWQcen0qR2uWd4IxTt233FVA/5U8yZxg479am6LSLUbfmeeak8zg8e9VFbHT86fu3Ac8/lUtmiRZVzuORmpA5JA7+9VhIOp4X2p4foQOKi5RY3ckDrmniTJqsrc+9P3Hj69qCtiyrE4xmn54x0b6VVVh2/IU9ZBzuGT/OouUWVbLYBzS7+/A579qqqw54FP8wYOPxoKRY8w846YzTt2eM5Pb1FV/NOCeoPPPajdmpv3LLK9OOlG4qpOOtVg/UEYJ6U4ybumcY6UrspFgPuAyefpSo24c+tQeZ+g4pPN5wOT060h2LXmdcZpqyfNjvngiofMGPQ96a0p3BR+WetK4+pZaTP3iQRSbvc/TtUDYyD0o8zk5zjrxSHYmDnHHIo3hl/HkVD5nGD1pu/byTkjvS0GT7tpNNaTaQcfU1D5gGaAx7Hd9eaY9iYvyTgEegpm88bTk1GZB0wd1NDgdTx9aBEjtjgj6imswOARn6VG0hb8802STb7Uh2JWb34pjPxgcCodwzikZ9vIGMetMVhxk7Z9qazYyOg+lRs53Z6D3prN8vI5oAeZAMjn060zcQcdPSoS/OOuOlN8wc8nHegCXzCre/pUTSdcZ9abvGD/AI1G0gIH8+9USO807ck01pN2emMc4NReZ6ZI96jMm72/pQKxI0nb8qiZ+oJxTZHByP61G7bcgc0xCtL2zn3pjPnnIzTWk685x71EzYb19KaJJJJME9z6VE0hGc96Yzhc85PrUe/Cj86okk3Hr2qJpDkjpTS/bt701mBByc++KYrAzjg8Dmmbx2570xm446VHvGODmncQ5m3Z56frTXdeMZz35qHzC56ke/rTZJBxj+VVclj2kAyB9ajaTc3XJ7D0qNm4x1Bpm7369eKq4hzMcE55zTN2Pam+ZjPPHvUZfvnIpXFYVmPKk4B9qY7FST+lMk+8R+PFRs42kDnPTP8AOrTFYfvJOfTtTN2SDmmFxxg1GZM57Y5FUBKJPYH60VErep59xRQTys4JXB74qRZD6ZB6mqwwFwcfgKkBL8n6V654fKTqwVh9OMU4NjqTg1Are+DmpVZcdefTGaXNbcdiwpO3rj1p4kOcflVZcHcSeR7VJu9B+dILFhWPfrTlI7nmoVk2rxmnqw3cZJpXElqWlbgjOB+VOVu3IIqusgwcmniQE/rmhDsWVkAIHbpUitt+X+tVY28w8DHPepFbDDnilIZZSRenFSrJlvSqnBHXnvUisOeTk9Ki41oWSwyoGBk1Ird+tVVbt1qQSN0B/GjcZZVvlAzgetTK525wMdqpodpyRke9SK3/ANbFS2FrlpXHPY9jinhhwPwFV1b5c7scY57U9W4znH1ouOxZVtg5wRT/ADG2nFVPMC57/wBaljkx16UnsPctRsOTnnuuaerDnnFVlO3jkEcU4MG4J5pXHYteYeOcr6inbj69fxqssnykZOOnpT42JAwc9qRRaV/mGTj0qSNs8ZwO9VFY8A/Lz+NSCT8vSkNK+pbRx35FPRtvzHpVRZN3IP5d6lEvBOfxpFarUs7sZPf0pY3LAYP1zVdW3detSq5HPTmoY7Fnf93nBqRXOM5ziqiuByMflTw3y8HipLSLauMHnOfXrT1mCrz19faq248YPPWnrISuMcGp1KSLSsMkgZFPDFgee+KpiTj5enuKlUjaSOtFyrFpW+XORn0FSRsuR6VVVjjGMH607fgCpuikWlc8jpSrIWXn8DVcMOCOnrS+YVHA561Jdi4snOMdvSn7txA/DmqfmbO9SeYNobP4VBdi0H+UjGKerYweMZPaqsbEjB61KG+bntU3LLKyHdzz705W/Cqobtj86ekme2fWkWWQ+cZOP50/djkZ61W8zpk5+lOWT0/+vSAs+YPy/u1IrDOM/XmqnmZznk9M0vnEDGcVJW5c8zdz603zOOOPaq+87Rz1pVO7P1pXLLIJ4A4HrTvM6H9Krbv/AKwpd4OT3NS2Ui35gGO/FJ5nTkdarKSzcE896NwC8jPbrSuVYtM+VwetKje/IGDVZZT/AJNO3rkEfjSGWNxXPc03duPFQbjnng9qUPjn8frUlFnzOp71GZDjPT8Ki3DOcj6UnmDcRnPagdifcR1Iz1zSedtzUO4Lgg4NHmbue/rSGSl/m6Yz3prMcdR+FRbhgg0xZOeT9KYE3mc9O+KXzM9elQGTdx+dNZug5pD0JfN+U569qRpAcZ6d8VCZNuegpm7OOefWgRNuGBge9MMh5GMmoWkAHP50M3y9TnpjNNgPZuPvdO3rTN3ucfWo3kOCBnimM3OO/rQiSRpCvb/HFRmQqx459jTd2CQelRs/zEg496oQ9nOB1NML/N7f54pjSdcnPoDUTcjPSgRI0g65/DNR+Z1x2qHcOjDGRxSGQYGDx0NO5I/f83PSo3k28de+M02SRcev41Fu+XI6evpTGPZz260xm6d6Y0nfOfQ1F5mQcc0yR0kmV+nHWmmT8qYWJ71E0nzAn045qgHvIFXGe3So2k54JBphf5S1RM+77poJJXfK5zUW75eePTFM3ndx07imNL3wetUS0OZzu68+wqPzBzzj1pnmDHXB71G0mQec4PWmmSSmQHjODUTSBeTzUbSdwe3NNaTC/LzTQD2YMuen1qJm+XHFMZvmznP+fSmFvlxn68UyR/mbmz1PSo2btzUZkweuPQ0wyHpnNUFh7N+NNbK8nio2cLjPWm+ZuGc8YxVXJsO3hehzRVZ2fdx09jRS5iuVnGK+3GD+lPWU459arbvmFOVh9PQmvXPCsWQQ3U8U9X9OhqtuAwBTxIe2fei4IsBuQc5FSqdrDqM81UjkDdcN6djUinqcn6+lJsZZEnzcfXOakV/lyelVt/UZGacWAwef51NwLanJGfXinq3TJ7VVEmcd8CnLJhgPagdi4rDbx1z2p/mev481UVsLz19RT1YcZ4NK4ki0smD0wam3DoW4x2qlv3YI7VJ5mDjJ5pDsW1k+Xjqf0pysFHSqu4+uaeG+bBOSB6Ur9ECRcjk59B609ZOcjk+lVEY7ulP3dz1pDsW1kO7rx16VKrdQBxVJW6f/AF6k8zuOg6e1BSiXFkPTdzQrZGC3fvVdWGfpTxICMUgsWgw+vpT1PQ9PWqqy7cAdP509ZCvU8VI7FtXI46mpBIMc8mqit789uak3HB9aRRaDAKMD6U9c8DJxjrmqq5bHbFSLIMcDNSUi3u4AIB5p/mEjIP0qqGy4HQU5WO7HVc0ii0rfN3z0qVXG0Z4H1qn5nzN9cVL5meFAA6VIy0sm08nipC+eN1U0c9CcVJvIBP8A+ukyki2GKj2J49qXfnpxx1qvHJwCafvPfoakC2G7k/hThJlQD+FVFbbxmniQNtyc1LLRbEu0+rU4tu4/THNU1Yc4ODUqybsZJFS2WWQ3A5wP5VIrrkc5A4qqH2k8AZp4mGfT6dKllotBxyM9aeG65z61VWbuxx26U7fu/lSGWgxOO9PVypqsJOuKdHJtyQQajqaFtZAWPY09ZODk1U3c9OOlOVjtyP1NIdu5cEnRQTQrgd6rD0BwPenBvmx1NDZSLXmZ+b+VOWTsPyqr52Oev407zOgzUFWLJkHBPGD1xS+Z7/j2qssjYySTigScdcfrUsstrJt4zhaUScVW80dKXzC2OQaRSLPmDp19sUeZ8uQcEepqv5nzcduxpwk3Z45xSGkWPMHUUocY3YyariQqvByKA20565HNSVYsrJnJzxR5vy8/liq/m449qPM6Yz9KCtC0JgV9D1pnmBe/WoGkHr9OKaPl5xn0oAstIMe/rTfOJ4561W8wc/ypfM28D9e1ICwZCep4601pDjpkHuKgZxyf4aPM25GaBkokzjnApu7HAGSah3DjPIzTWkB6HjtzQPQsSNjk8fWmmbPbiq/me/60wyFduDj2zzSJLBkXbkDr61EJFZj2Ge9RO27JJzSNJt43DHamBIz/ADHnJ/nTWlPH973qBpNze/5U0t0Oce1MGTNMd3TNNaTK8VC0mD/9eozJ1JwDTug0J5JC3A61FI3zEY9qiaT5vpUW/wCYdqaJJXl2r04prydORiomk+XOMmo/MLZB/DNMRJuI/mMdKjZupPXpUTyFs449aiaXgk9OlJMkmZgB1x7ZqNpNvTp16VFvLH3x+FNaQ896vrYQ4sQOPWo2kyxPBHTFMLAsDnJxUbSBeCMf0ppiHsw67iM9qaWOCDx9KiZ+Tg8elRux/wCA45qgsPMmCfems4bjOBUW/cpwM0zdu5zzQIeW2k01m9gPcVE0nzdicVF5m7OOtMViVm9TzjrTN3I7DoaiL8EHgUxpC2C2OetMizJCxH58VG0g2jn86jMgz6DNRmQcjtmq0AkZvmwefbpTC3cdRUcjc5zimM4+amIkaTHPfGKYz7enp+NRs23Hf0prNxuxk/rTESjDe9FV949Cfeii4ziFchc9MU9WH0x+tVVbqDzUm/v+Qr1zxCwJD0xkZqQS49SentVVW7556GnrJjk9aB2LO4qMd6eshyMniq6uOgzycnmnbgCPT60gsWVkyepGDUgk28DqORVTflhmpFcP34NT1Cxa3kDO7r1FSLJngHHvmqu88AHj0p0bAZJ4pDLSyA4GKk3bifTH41VRunH61Kr+/HSkFix5h4xxn2qQMeMnBqsrfTPYmnLIcc8jFBVi3HN8uBk4pytj69Peqwbbj+lO3Yxjn6ikxWLe7oAKkEnUDtxVSOQtnA4FSbsrxTGkWlkO3sFp8cme3GKq7trYxnnrUkbYHJ/wqWBa8zqO31qTzAG+lVFcckHBp4kyMD73bmpuNFsSY56dutP3Hjjv61U3EDrzUsbbu54pMdi0rH8O3pUgbac9TVTzOwJ4qRZCfx9+am5dizHIHzzjb2qVXOeOP6VT38Y6U/zAQccUrjLSyHPbipUbdVRSdq/nT/MPH68VIy55q5Hv0NKG9D075qsGHHqKd5m3vwaQy6rHrx+VLv2jOeT61VjYAg5p4YBgRjrSY0i4ZAW5OPrShxgHJ5qoZfw/XFKHDdsdsio8ii6sh69Penq3AHQVTR+g9u9SKwbBz9eKRZbVizdac0gIz+AqqshXOOfelEhxgc96kouK/OcYOakWQ7iDwTVPzflyvHrUgb5evPWlcotKwY9+KerfN0qrvC8jg5pyycgdfrUXK5S5vwu4kgdqUS/L1YduBVcSZxR5h78k0ii4snzDPU807ccfe4z+NVAw6bsc807zA2MZ4qWVuW/M6g8mlSTnHOKqiTqT9DTllB47UFpWLgcZJ6/1oWTjqM5qmsnTBFOWQnJPJ9qnYpIu+YOD19PrS78ZBJqmsnzccU9XHHOCDUDLQwzHFHmfLx9KqiX5hTlk7Dv6VPW5W5aMvoeacJDuPHPfFVA/IBPTvT2bpjiguxYWQdOnNOMgIPFVFl9eadv56UDLO/bnikEmOo+marecSfXHShps5yOR6GlcCzv2jIpTIrMOlVRICvJ5+lHmBVHOPekBOZBuHJ69aRpDuznPrioBJzljgd6b5w24z+YoGWmlAj554prS/wCcVX3fMf7vfFNMnrlvxoEWfMGSw5P0pNw5J6+lV92MnPHbFMMx7ce1A7FgtuXjmk3gc9veq7MetMLHdz+FIROJPmPt1qMsRn/0KovM6gnmmsw5/wD1Ux3JZJCCBnmmmUZy1QmTrwCKjaQNk9Oe9UBOZCx6cHnmmNIV9MVG0meOTxxUTS/L6LRoIlaTkYPPrTGkzn3qLzCeg5phk+UkUwZIXwASOOlMLF/y7VDuO0gfnUfmDjkUJi8yYTfLjGPeo2b5iMZBqHzOeTgUxmLA4PTtQSStJjjGDmo3k28DgVGzEHHb61F5nTHG3oBVEkxfc3BNQyN+J9KYzHrULOduKoCZpDjJOP60xpPlwT9OaieQMMk4pjOe5p3EP3ZBAOT0qJpuevIqPzN2c9KaW2rw1MLDywZTk81EXz+FMaQbuTmo2faOvNBBL5h59c9Kjkk24H51Ez/ORnr+tNZtuc1YyWR++P8A69RNJ8oIHI4qIybTjNMeQg4yOaBEsjbuc4/z1prSBc+5qIy7j6mo5HPHTBqkyWiV5COetN8zJz0NQsTt6VHux0PtTFYs+cO5/Kiq/mdKKn3uwWZxaybu1ODcgDPtVdGHUg/lT1b5h2H0r2L2PHt2JwxUEE9/WpVbglfunvVXcGbj161IG9+Pei4ywMdacso2jPNV1kC49z+dPjYbiD0+lK47FgOWYAGpI33Ek9vWqkZ5xjFSq20DB9jmkFiysh6ccGnbief51XWQHnt0p6SDnOfyqQsW93vk9BTtzL1PGO1VVbj0qTfjPHt9aGMs7vX7vWnBgMVWRj1NSKewPTrg9aRNlcs7hz8v41Juy2RwAP1qqsmF45PYU8SY+vpS9S9C0rY6Dn3qQHpnqelVFx6596k8zAxnJB7UrjUS0rdMEE1IknfvVZG3Dn0pVkzznj0pBYtLIew6VJu4469aq7gFxg5zT/MKkY4z1qeYC0JOM9/SnrJnpmqqsWzt7VIsnyg9/wCVIC0shxkgZ/WnIxOD3NVFmOKl80D+dBWpa54yeM4GakVtuc9feqit1yOO9P3Y6Zb8Kkot+buPXkdad5h28NzmqiydDinmT5sA/jSuBcBP5nk9KeswJ9hVNZSOeacrkNjtmpKLqzHHqadv6AfeB7mqnmdMfL2pfM9eeMUF8pb3DAAOR0NPD/MSTk/pVZZAoPpTg3Gc4J7GouO3Qtq3anq3ynHXpVTzDwuN2fwp6ybu+B3FSVYtJJ1wcD1qRZdw9cGqjSYbAH0FO8z5Q3cUikXFl6gDPY8U9W4xn8aqLJ2Aw3WnrJtXnmoHYuLMR24NP8zryKpLIoPBx9aesgHUcn2oLLaMM1IH3dcgCqXmfNUhk64/SpGWvNGBz78U9ZQrZ/nVJZDj0z604yZ6dfXNRfUtLqW1cH/9dOErZyR+VVY5N2eetOWTjOcdqC9yz5mB2Pen+YduQc1UWQrgineZnjt696m4WLazHpnn60rS4OSfpVYSfKAOT9KPM3DP+RUsotmTdg5xTxKB059hVPefm5yPWlWU8dAtItFvzc8kc9KVZu3Q/wA6qiQ4bJ4pRIQDg8/pQMteZ8ueKDL79f0qoJPl9R3oEg6546YNIC4zHoOAKb5gDA4Oc81X8wscdF6+1L5o+oFTsBYWbnj5TSeYDwPm5qs0g25o3hmHPbpQMsCQbs9BSCTa34Yqt5gXHOB/KjzMEDORzzQV5Fl5PSkaT16fSq+8/KMf4Um/oMnNAtiwJOoz0+lN8zrk854qqzkdue9EkmST+VMZPv4Azk+lIZSyjBquZNo67h603zAcnJJBpCtZk7TNnnOKaJMLkHIqBmK9TTWlwoGcD0FAybzDn360zzN2ScE+1QNIBnB//VTfMO3kcfrTZLJmfPHU+oqNpBzx2qEt15wabJJgHGB2o8hEzSdaiZsYOcGovM4wRgim+YMcfTPSgCRnX149BTd2334xUG4qx/xpjSZJxg1XUCSR+D6+9M3dMjp7VH5meeSKYzgdOnSmSh5kxk/ypvmd+nrULSDnJ/DNRmTcCTwfWmhEjEc85PfNMZtvXrmombcc5z25FNaTcD1zTEO875s5zzTJJAckfhUTSYwxzimtID1OMjrVC1Jd5CjmoXk7CmNJyBk/yqPf1zzz3pgSNIeRUbOck9D60xn6YwPeoml9eOadySZmPOD1NRbwOvX61GzHoTz6Co925T7e1O4iRpF5wPypm7cp79utMZ+4x9MVC0nz+3U0wJ2kGeTz0BqIyAcDr701uAM1E0mOc80wJWk6npnoaZ5hz7D3qJpM4x+NMZj+BHrVCJcluc0VCJNoGAPzNFO4HI59yafvHr0PU1W8wjIqQtnk8g16jPKSTROsjL1fPtTlfOT/AA1XDFsjqKcJAMnHGMgYqR2J95yRnAz0NSrNwBke5FVVkB6nGakLH8B7UxFkMe2D6807cG5J4quknHAJpyt0yOaV9QsWfM42mpEbp6emaqhxu65709H3Z4zUsLXLAY5PFTeYX7+/vVPcVbJxUm4Y5wKLhYtpJ3z7U4Nt9qreZwAWzTt3vilcdi0r9STz2p6tuGTxVRX29enrUm4lRk8UBylsSenIPrTt/pgfWqvmEgYqTzCo7Zz60hlrzuAO/WnJKM8/hVYNz1ApxfHQZz6VLBLuW/MO3n8wKkWT8vaqaSHgdvSpFkzyDmkOxZ8w9MEVJ5nIFVBMF4Y4NP8AM74pFWLYkHQ9f5U9ZCe/5/yqmJOgJx/OnLJ2PPvU3QWL4bdnII/Gjf8AMMHAHrVMSFWz1B4qVZeQM5NK4WLnm/KcdKXfu6HPHaqqyYA+tORwPqakqxbWbccHg5zxUokO45qksnzDLZ454p4k/DNAy2snYcd+lP8AMPfBHaqit35yO1LuO3071EikXPMC4OOe1SLJ16ZqmrehOP50/wAzHTgipKXmXPMLfXvTlkHc1VD7c8cU7zDgYP8AwEUFot+YWPOTjnNPEuT7d6qecQSR19aVZDzn8s1JRdWUnnqRTlmG3OefT3qosmAMin+cMnJ9qQi55hOOcDtxxTvM+bp26iqiyDdn73tTxJkEg0iki2Jvl46UeYW5zkVV38YHzZ9qUSDIOSMVBZcWYnIwMCn+b3OM+tUvMG445zyKcJdwHAA+vNDNC5v5xzmnB/wHSqiydDnJ796d5hI+YfgazsIuLKMgZpySBhzz34qnHIMDtzT1kAzwMVIy0zHGByfXPalVgO+B3qmJOQfypxk8sYIPXtQVaxd39O3pzSh924/rjvVRZiOv4c0ebsPGT7Ur6lFvedpX2zR5h4GfxFVfNPJztOaPM6jrTGXPN29sUeZ055qo0hx0GaXzD9BUsZbD7h8x4xSbuSQc9hiqvmBeBwBS+aMHmpCxYaT2Bo8z0BJxVUy88Gl83qMYPQGmOxY3Z5BwxHr1oLbcYFVzKA+D+dN80YODk9BmgoseZ3zSeYeCDVfzgT6UNINx9cZ5pAWNxOMdfemtNwc9DVXd1PY+9L5p4oAmaQcAHj0pGbv2qBps8jkdOtM8z5QOaYE7MDk8/Wk8zj2qv5mODgCo/M9OB+lAmWGYN0GfrTHYdi2MVDvBXOACKjaQevH/ANamSWPM2+4prSArnd7VB5ny4P3qiMnfNC3CxYZi3Xt15qNnzxnjOc1CWIPBpnmbvw7Ugsyfzju5PFRM2RgDioWlx1bPNNaQ44/WmIlaXv8AlUfmfMAelRMxGOeajaTn72fY0xkxbuewz0qJpM49KiaQNntgU1pPU8VSJJTMc4HQehqJpCvB+pqNpN3T1qNmz+VCFYkMnPTJ6UxpAFOajabn3/nUTydCSQaq4iXf6j8+cUxpDu4+tR+Z8xwc1Eze/I9qonQk3Y5P4013VVz7dqiaQ+m1s0xpCMDOPWncCUyBRjqelRNJ8pOePSmMw3A55qLd+HHWqJaJjL15wPrUbtu6dAetRM5Zhn86axPQHr6UDJGk/DFM8z3B5pm/GOcECo920HkE5zTFYeWBHB59fSm+YRkd+1RNJhs9TmkMhzwelMLD2YbuRzRUDTFW9O/JooFY5lRuR89ulN/55+/WiivWWx5SHrzkdsVIv+tWiioKCNizAE1IpOetFFUSSxjLKO1O6yEf56UUVPUaHLz5fv1p+Sqkg45oooYx8fO7PPB/kKVXJXrRRSQmTLwpPenZ+bHaiil1K6Ei/wCqzTh96iiq7jQq/eHvU38QHaiis5bC6js9vSpP7p70UUL4UJfEKfvAdjTsnLe1FFT1Nh/8J+tSp2HbOKKKGSOjPzD8aenKiiisnuSgVzxzUmTwe9FFMpkkbHYT3zT9xPf0ooqWWiQffUduaX+9RRQ9gQ7oyjtgfzqZ1CtxRRWYx247X56dKk/vfT/Ciik9jSOzFjYsvPPNAY/N+VFFQtxoXeQ4IPf+tTKTg/WiiqluN9CaPlyDyKQcs2ecUUUDW5IvOfzp2TuPPSiipZUh7fKBimxud4Ge1FFRIom/vfSmqx3df84oopFj1Y+YR2xTh1A7EUUUkLqOJO4/Wnbj5QbPPNFFHU2jsLuODUp4zj0ooqWAyM7ic88U/J8vPeiisge4FjujGeCKkX5t2eeaKKfRDQ1WPIpW4OB0xRRTZQ7orex/pR2z3/8ArCiioQmAJHI64qKRiDwe4oop9S0KpPJ96TJKqe9FFLoAqn94v0z+tMLHg55ooqFuAdzSLyoPfJFFFai6idd3tTY2LMmT1oopDGMcfnTFYhuv8RFFFAEQdj37kUL8ygHp/wDXoopIjoRyd/rTdxK9aKKvqHQZ/wDE5pjfeP0ooqUSvhI36mkbqKKKb2AY3LDPpUTH5h9P6UUUIBjfdf6UxfviiirQDLn5WOOKhZiFODRRUiYg+ZJSeSDxTMfKT/npRRVokrbySATmo5GO0HPP/wBeiirY3sHJVueh4qOTqtFFJEETMcLz3ob7oPp0ooqhMiJO1D3yaRvlJx6GiiqGNY9KibpRRVCI2J3Hn0pG4VfrRRTKEZRwcckUUUUDP//Z;" vertex="1" parent="1">
          <mxGeometry width="800" height="480" as="geometry" />
        </mxCell>
        <mxCell id="hFHBtLZw5_vsM6Dtxbmf-2" value="&lt;h1 style=&quot;border-color: var(--border-color);&quot;&gt;&lt;b style=&quot;border-color: var(--border-color);&quot;&gt;&lt;font style=&quot;border-color: var(--border-color); font-size: 22px;&quot; face=&quot;Courier New&quot;&gt;РУЧНОЙ РЕЖИМ&lt;/font&gt;&lt;/b&gt;&lt;/h1&gt;" style="rounded=1;whiteSpace=wrap;html=1;fillColor=#383B3F;strokeColor=#4389cd;fillStyle=auto;shadow=0;glass=0;gradientColor=none;fontColor=#638BB0;" vertex="1" parent="1">
          <mxGeometry x="180" y="20" width="460" height="60" as="geometry" />
        </mxCell>
        <mxCell id="hFHBtLZw5_vsM6Dtxbmf-3" value="&lt;h1&gt;&lt;b&gt;&lt;font style=&quot;font-size: 22px;&quot; face=&quot;Courier New&quot;&gt;ВКЛ./ВЫКЛ.BLDC ДВИГАТЕЛЬ&lt;/font&gt;&lt;/b&gt;&lt;/h1&gt;" style="rounded=1;whiteSpace=wrap;html=1;fillColor=#383B3F;strokeColor=#4389cd;fillStyle=auto;shadow=0;glass=0;gradientColor=none;fontColor=#638BB0;align=center;" vertex="1" parent="1">
          <mxGeometry x="20" y="100" width="190" height="100" as="geometry" />
        </mxCell>
        <mxCell id="hFHBtLZw5_vsM6Dtxbmf-4" value="&lt;h1&gt;&lt;b&gt;&lt;font style=&quot;font-size: 22px;&quot; face=&quot;Courier New&quot;&gt;СКОРОСТЬ ВРАЩЕНИЯ&lt;/font&gt;&lt;/b&gt;&lt;/h1&gt;" style="rounded=1;whiteSpace=wrap;html=1;fillColor=#383B3F;strokeColor=#4389cd;fillStyle=auto;shadow=0;glass=0;gradientColor=none;fontColor=#638BB0;align=center;" vertex="1" parent="1">
          <mxGeometry x="20" y="215" width="140" height="70" as="geometry" />
        </mxCell>
        <mxCell id="hFHBtLZw5_vsM6Dtxbmf-5" value="&lt;h1&gt;&lt;br&gt;&lt;/h1&gt;" style="rounded=1;whiteSpace=wrap;html=1;fillColor=#383B3F;strokeColor=#4389cd;fillStyle=auto;shadow=0;glass=0;gradientColor=none;fontColor=#638BB0;align=center;" vertex="1" parent="1">
          <mxGeometry x="170" y="215" width="140" height="70" as="geometry" />
        </mxCell>
        <mxCell id="hFHBtLZw5_vsM6Dtxbmf-6" value="&lt;h1&gt;&lt;font style=&quot;font-size: 20px;&quot; face=&quot;Courier New&quot;&gt;ДАЛЬНОСТЬ ПЕРЕМЕЩЕНИЯ&lt;/font&gt;&lt;/h1&gt;" style="rounded=1;whiteSpace=wrap;html=1;fillColor=#383B3F;strokeColor=#4389cd;fillStyle=auto;shadow=0;glass=0;gradientColor=none;fontColor=#638BB0;align=center;" vertex="1" parent="1">
          <mxGeometry x="20" y="300" width="140" height="70" as="geometry" />
        </mxCell>
        <mxCell id="hFHBtLZw5_vsM6Dtxbmf-7" value="&lt;h1&gt;&lt;br&gt;&lt;/h1&gt;" style="rounded=1;whiteSpace=wrap;html=1;fillColor=#383B3F;strokeColor=#4389cd;fillStyle=auto;shadow=0;glass=0;gradientColor=none;fontColor=#638BB0;align=center;" vertex="1" parent="1">
          <mxGeometry x="170" y="300" width="140" height="70" as="geometry" />
        </mxCell>
        <mxCell id="hFHBtLZw5_vsM6Dtxbmf-8" value="&lt;h1&gt;&lt;b&gt;&lt;font style=&quot;font-size: 22px;&quot; face=&quot;Courier New&quot;&gt;МЕНЮ&lt;/font&gt;&lt;/b&gt;&lt;/h1&gt;" style="rounded=1;whiteSpace=wrap;html=1;fillColor=#638BB0;strokeColor=#4389cd;fillStyle=auto;shadow=0;glass=0;gradientColor=none;fontColor=#383B3F;align=center;" vertex="1" parent="1">
          <mxGeometry x="600" y="400" width="170" height="60" as="geometry" />
        </mxCell>
        <mxCell id="hFHBtLZw5_vsM6Dtxbmf-9" value="&lt;h1&gt;&lt;b&gt;&lt;font style=&quot;font-size: 22px;&quot; face=&quot;Courier New&quot;&gt;В НАЧАЛЬНОЕ ПОЛОЖЕНИЕ&lt;/font&gt;&lt;/b&gt;&lt;/h1&gt;" style="rounded=1;whiteSpace=wrap;html=1;fillColor=#383B3F;strokeColor=#4389cd;fillStyle=auto;shadow=0;glass=0;gradientColor=none;fontColor=#638BB0;align=center;" vertex="1" parent="1">
          <mxGeometry x="340" y="100" width="190" height="100" as="geometry" />
        </mxCell>
        <mxCell id="hFHBtLZw5_vsM6Dtxbmf-10" value="&lt;h1&gt;&lt;br&gt;&lt;/h1&gt;" style="rounded=1;whiteSpace=wrap;html=1;fillColor=#383B3F;strokeColor=#4389cd;fillStyle=auto;shadow=0;glass=0;gradientColor=none;fontColor=#638BB0;align=center;" vertex="1" parent="1">
          <mxGeometry x="490" y="260" width="110" height="70" as="geometry" />
        </mxCell>
        <mxCell id="hFHBtLZw5_vsM6Dtxbmf-11" value="" style="shape=image;verticalLabelPosition=bottom;labelBackgroundColor=default;verticalAlign=top;aspect=fixed;imageAspect=0;image=data:image/png,iVBORw0KGgoAAAANSUhEUgAAAFAAAABQCAYAAACOEfKtAAAACXBIWXMAAAsTAAALEwEAmpwYAAAIRUlEQVR4nO2ca2wUVRTH94PRoIma+F3ws28h0Q8iJtKZpRjBGgRFY5CHgJqo6AcfUDCh924LtOXVrRGFBlAIaAKmQCIUgb13trs8LO83kVJMhAIlKa3tcs3/ztztts623e7Ozmy7J7lJszs7nfnl3HvOPY/r8+UlL0NWXi2O3q8T/rJewmbrlC/TCavVCPtTp+y8RnmzRlm7OXiz/AzfEVYrr6XsA3+AjcE9fENJ/NR4QSd8oUbYPsDRKRfpDOsef+CeBSX8ed9gFJ3wETrl83XCziS+vJ8aYvLqBjGr5pyYt7VRFO+4Lkr33hZL97eKFbxdrK7vlAN/4zN8t2DHNXktfoPf4h49gJ42/xcf4ct10YgxUiNsq0ZZTL3ghIqDYu6GC2LhzutihfGvCEZjaY3lRrsEj3tOKI8mgozplG3RA+w5Xy6C0ynfoV6msNQQM9aeEYt23RBV0c60oSUbuPeinc3yf40LhLs0k7BaPwk96/O6jCmve1gjrFIjvFOCKwtLzag4cMcxaMlGJWsTn2z+S4xfUh/XSI2wmldKwo/4vCga4W/olP0t17aAIT7ceFEs5+1ZB/e/Kc7bxdyNF+QzSZCEXdUpL/J5RfyVtfdB69R0mbK6QZA9La6D6zlggN4OHutaIwmrmbSUDXMVXkGZ8ZhG+EGldV/82iSqPAAr2cCzff7LFeEvVZabRV2z1joNP65R3ogHeb3ikCC7b7kOqL+D7mkRRZWH4lO6oPTAM1mFV0BCL+mE38ADvFN9TLoSbkNJdcC3nFp93LLS/IYeMEZnDZ5GeCv+8bQfTonV9R2uwxjoWFXfIaatOWVpIm91HKK/lD+lNG9WzVlHfbpsDbzDzJqzcU0cR9mTzhkMypqU5g0GeMEEiEoTdcKvFJaFhjvgqpjWdmr1Man6br90MMMDe+53v1NrIovgnTMGUKNsJW4My5WLBiOYgmGBR2FZ58oM7jBMP88rDnK06a44fPWuI/cu2X1LjMOuhbC7WiA0Me29rdqewUn2CjwlTkGEs23tn5v8xcaDaU9dbIGqPAbPUYiRmHjL2vZplFWkEcvjnZi62Ed6EZ6TEAN1LSpY2zGgnYqK5yGq4mV4TkJEKM5ybbanBA/EsYginoe4mtfhOQURobDxZVY8kRgjU5i+bCt+9NFPF3MGHiRyJfNaiBloroV8cyo7jlhhaVhUhNqGNLxgNCaj6UgPSCb92aFohC0A8Rnrzgx5eEEL4vs/nlY7lK/6AZCfwsVIAA1lzQsmDCSqVMq076S3lXp0I1gQ9SA8jKpIp3htmZkyHRsIj0oKENl9XIQkTB5erBuDORvOq3zK/N7Wv324CInqvObFujFYUHtNrYN7bOGhSEcjvA3edzYjLlGPTtueA0zABoxss3modFJpyTy8mC2DyasaTC20C/1bJWayaCeveTFbBir0r1E+086AlOPLeVsa89M2ag/w0y2NKp+8xAagLFyUVVP5NS9my6A4bkhsggsa5Q340snQVTRHDEayQfe2KA08YuPC8Ev4svxAax5e1B7g0gOtCuB5uzXwOr50woWJ5rjmJYa3rITTPzZT2KxXRnovDy9mywBVGFYVQ1vWABqNqWmfU4kixwE6OYWNQQKx9ynssBExBgFEdAokNSLZcGOMHIfYqxujHGmnIzFGDkNc0JsjHd/KbXV+K2fkKMTPtlzuZSuX5WCCkYMQZ63rJZigwllon8rWAxk5BvHN3sJZiQFVlHnlIca6MYB7pwdkSP9O0vYI2fXoQkjfyAFNjBsQynbbwuuWVNqQ/aSS4XGIc9ZbSSXCv0kKEP22Mq1ZHnUlrWl4FCLSmhOstGafNTIqsf7truasAwx6FOJCK7GuE3aiV3jWOjhflnasda+0w/AYxOlrrdIOyr7sGyDhI1RxUXko+22qQY9BTCwuGkv3P9onQC+VtxkegIgqDSuEtcmXcoFlqfsFlkYKEDMdyca7o8gULFI+OkAFF9yokwkOAKITaYCEephtvlQFZwyoIvNA3W1PQ4w4AI8mFJmjRzBlgKYW8hVmucdRWfrvRYgRJxJQkZiYUnVUad8y30BlLI0+ZJ0xIJtP3AYY7AHRqewdqjNU42FajTZSCykv6mr18kZXerTprhxO3Lvk95vxVi+dGBPSgtdzKqMRL5uRmqALSaN4s+FAO5TsBK2f8oAGymUL1KrwYGx37eg61YOwyKTiY/f6Mn7+FeFXZMP1msHXcP3e9ydVtLmx3zuOdFr+UStXNQggItKSEKpvLlgcesLnpCCcHT90Ys2pnO5ex7SNax7hrX7KX3QUXiJEpYlTq4/npGGBwVBrHjQva/C6HbxD2GU8wMSKg2Lx7puuQ+nvgDtW1GVtmzRiPO1zQwrLQsNhsfAg8J2ks+2BHUvSETGdZOnnmZpX75jB6K+MKa67R6eMSsfTSot6xeHuWZahutCt4Gh1xl2VdEQLhCaqc2WwCUdiyu1QGAaeAVGV+FGhcMUytcPItBSUHXlAaiPlHea0DovZ68+5EtmuYG3i458vmfE8U+s6cJRJ2nvbbEiBDMjy7WpaA+T0tWfEwl3Nzh4BGjGPAEV7avwIUPMZtg04JOU2SI3yzYmH0KLrEVMKLQOZKObEPZD0Rt5WpR67jvzkm1yzsJm21hrlX+uUn+xaxFFjwmW9CQ4yQxMLoGKxRyEjwKhjkPE3PsNJGoCFa7ETmryyQZVbJB44ewKN0a5bV6dkbCA8CqlTjbI61OJ0e/mBjTvooETFQEoHQwwGmbSUDTO3hsYs1NxplP2mE34YJbSo2VZHweuUXbM+OyzXVlyL3wSM0a6fg5qXvPjclP8A8fwhRGO5Ak0AAAAASUVORK5CYII=;" vertex="1" parent="1">
          <mxGeometry x="414" y="260" width="70" height="70" as="geometry" />
        </mxCell>
        <mxCell id="hFHBtLZw5_vsM6Dtxbmf-12" value="" style="shape=image;verticalLabelPosition=bottom;labelBackgroundColor=default;verticalAlign=top;aspect=fixed;imageAspect=0;image=data:image/png,iVBORw0KGgoAAAANSUhEUgAAAFAAAABQCAYAAACOEfKtAAAACXBIWXMAAAsTAAALEwEAmpwYAAAITElEQVR4nO2ce2wURRzH7w+jQRM18X/Bv30Lif4hYiLdPcAIYhAUjUEUATVR0T98QMGEzlwLtOXVqxGFBlAIaAKmQCIUlZvZ6y2glfdLoqWaCOWVFGpbxnxnd65XuD6ud7s7W/pLfklzt7ed/eQ3O7/5PSYSGZRBuWnl2WL7dpPwp80SNtOkfIlJWK1B2G8mZScNypsNylod5c3yM3xHWK28lrK3ojE2CveI3EwSpdYTJuHzDcJ+BhyTcpGPuvf4CfcsKuGPRwaimIQPMymfaxJ2LPPho9QSk1c2iBk1J8SczY2ieNs5Ubr7slj8S4tYxlvFyvp2qfgbn+G7edvOymvxG/wW97gO6FHnf/FhkbCLQazhBmGbDco61AOOr9grZq87JeZvPyeWWf+JuN2Rly61WiV43HN8uZ0JssOkbJMZY49FwgjOpHybepixpZZ4Y/UxsWDHeVFlt+cNrTvFvRdsb5b/a0ws2WmZhNVGSeLRiO4yqrzuboOwSoPwdgmuLCkto2LPFc+gdaeV7Kp4b+OfYtyi+rRFGoTVPFOSvCeioxiEv2BS9o98t8Us8fb6P8RS3uo7uBumOG8Vs9efkmOSIAn726R8YkQXiVbW3garU9NlysoGQXZdChzc9YoF6OX4gc53JGE1kxazIYHCKyqz7jMI36us7qPvm0SVBrC6U4ztw+/OiGipWrmZHdhqbdLk/QbljRjI8xX7BNl5MXBAfVW665KYWLkvPaWLSvc84iu8IpJ4yiT8PAbwSvUB6UoEDSVXhW85tfqgu0rz82bMGukbPIPwFvzjaV8dESvr2wKH0V9dUd8mpq064loib/EcYrSUP6Qsb0bNcU99Or8Uz/BmzfG0JY6h7EHvFgzKmpTlDQR48QyIyhJNws+MLUsM9cBVcVbbqdUHpOkH/dDxAiv23K9+od6JLIVnLhhAg7LluDFWrjAuGPEcFhZ4FO7qXFnAHYbj53nlINtN18T+v68FDhBasvOiGINdC2HXjFhiQt57W7U9g5PsFTwlukCEs+3un5uixdadeU9dbIGqPIanFcRUh3jJ3fYZlFXkEcvj7Zi62Ef6AU8niLG6SypY29avnYqK5yGq4ic8nSAiFOe6NltzggfieIkinoe4mt/wdIGIUNi4MjeeSKzhOUxfthk/euebwluf1dh3gDpAxAx03oV8Yy47jo6xpUlRkSis9cVDCBHRdKQHJJO+7FAMwuaB+Btrjnk6MCtEEF//+qjaoXzSB4D8CC5GAsjrgVkhgYhElUqZ9p70dlOPfgULrBBArEq1i+eWOCnT0bHkiG4BIruPi5CE8XOAVgggzlp3UuVT5vb0/vsZFyFR7fcALc0hzqs9q96Du7LCQ5GOQfhVeN9BRVwsjSGCCdiAUdZsHiqdVFoyCHjxEECcvKLBscJsoX+3xEwW7QQJMK4xRBX6Nyh/M9sCUo4v52xqDBxgXFOI729qVPnkRVkAysJFWTUVNLy4phCL0wtJluCCQXkDvvQidBUfIBDp7kvKAn/N4sLw0/iyfE9L4NDimkJcvKdFATyZ7R14Dl/qmjSyNICI8JabcPo3yxR26pWR3gsaVlxTiKjCcKsYroYSoJ1DMBaSOuMjQN2nsB0wvN6nsMaLiK0BPCg6BbpdRHR1Y2xN4PXqxihHOohITDwE8LpGZLI40umt3GY9tnK2ZvCgH2z6q4etnEbBBFtDeNAZa3oIJqhwFtqnBuF1ZGXwYk/hrMyAKsq8Bi2vowsDuHdmTIb0r3TbHiG7HgNaSGxNp+0NCwhlO7PC65JUWudvUsnWHB501lo3qUT4Z90CRL+tTGuW276lNe0QwENac7yb1uy1RkYl1j/f0TwIz3YAzncT6yZhh3qE574H58rSjtXelnbYIbA8pdNXu6UdlH3cO0DCh6niovKEN22qdojgZRYXjaa/3NsrQK/L2+wQwYOiSsMNYW2I5FxgWVr4Aksrh6Bo0PDw7CgyBYucjw5QwQUv6mSsPkAMGt519TBbIrkKzhhQReaxusu+QkxpAI9mFJmjRzBngI4V8mVOucfvsvTfD4gpDeDhWadU/a6sb0mkvzKa2ne5ZwzI5hMvBmtlQNQCnt0hqzNU42FejTbSCimf2Nnq5U1Xut10TWrQ4KAlP15It3qZxBqfF7zrpzIa8YKK1MR90KWZzYb97VDKJmj9lAc0UC5boFYkB2K7a1vnqR6EpSYVH7g1UvDzrwg/IxuuVw28huvXvjysos2Nfd5x5NPyj1q5qgEAEZGWjFB9c9HCxAMRLwXh7PShE6uOhLp7HdM2bXmEt0Qpf9JTeJkQlSVOrT4YyoUFC4Z658HyfIPX5eAdwv7CACZU7BULd14IHEpfFe7YxM7Vtskg1sORIGRsWWIoViwMBL6TdLY92LEUTFOOkyz9PMfy6j1bMPoqo4rrbjEpo9LxdNOiXjnc+ZZlqC50NzhaXXBXJR8xYokJ6lwZbMKRmCp0KKw/ijEgqpI+KhSuWKF2GIWWorJf75DWSHmbM62TYubaE55FtnvSCnZVvPvtaSee51hdG44yyXtv64cUyYAs36qmNUBOX31MzN/R7O0RoCnnCFC0p6aPAHXGsKXfIamgQRqUb8w8hBZdj5hSaBkoRDEn7oGkN/K2KvXYeeQn3xDYClvo1dqg/FOT8sOdL3HUmHBZb4KDzNDEAqh42aOQEWDUMcj4G5/hJA3AwrXYCU1e3qDKLTIPnD2ExujAV1evZHQsOQKpU4OyOtTidHn4/ukVdFCiYiCngyEGgkxazIY4W0NrBmruDMp+MAnfjxJa1Gyro+BNys66n+2X71Zci9/ErJGBn4M6KIMSCVL+B40iIUS3aJn1AAAAAElFTkSuQmCC;" vertex="1" parent="1">
          <mxGeometry x="610" y="260" width="70" height="70" as="geometry" />
        </mxCell>
        <mxCell id="hFHBtLZw5_vsM6Dtxbmf-13" value="&lt;h1&gt;&lt;b&gt;&lt;font style=&quot;font-size: 22px;&quot; face=&quot;Courier New&quot;&gt;НАЗАД&lt;/font&gt;&lt;/b&gt;&lt;/h1&gt;" style="rounded=1;whiteSpace=wrap;html=1;fillColor=#638BB0;strokeColor=#4389cd;fillStyle=auto;shadow=0;glass=0;gradientColor=none;fontColor=#383B3F;align=center;" vertex="1" parent="1">
          <mxGeometry x="240" y="400" width="170" height="60" as="geometry" />
        </mxCell>
        <mxCell id="hFHBtLZw5_vsM6Dtxbmf-14" value="&lt;h1&gt;&lt;b&gt;&lt;font style=&quot;font-size: 22px;&quot; face=&quot;Courier New&quot;&gt;ДАЛЕЕ&lt;/font&gt;&lt;/b&gt;&lt;/h1&gt;" style="rounded=1;whiteSpace=wrap;html=1;fillColor=#638BB0;strokeColor=#4389cd;fillStyle=auto;shadow=0;glass=0;gradientColor=none;fontColor=#383B3F;align=center;" vertex="1" parent="1">
          <mxGeometry x="420" y="400" width="170" height="60" as="geometry" />
        </mxCell>
      </root>
    </mxGraphModel>
  </diagram>
</mxfile>
